<svg xmlns="http://www.w3.org/2000/svg" width="83.893" height="74.753" viewBox="0 0 83.893 74.753">
  <path id="Path_170" data-name="Path 170" d="M664.312,26.131,674,16.445a2.611,2.611,0,0,0,0-3.691l0,0L662.015.766a2.611,2.611,0,0,0-3.691,0l0,0-9.687,9.687a5.226,5.226,0,0,1-3.695,1.531h-21.8a5.226,5.226,0,0,1-3.695-1.531L609.754.766a2.61,2.61,0,0,0-3.691,0l0,0L594.076,12.75a2.611,2.611,0,0,0,0,3.691l0,0,9.686,9.687a5.228,5.228,0,0,1,1.532,3.695v10.9l-1.532,1.533a5.227,5.227,0,0,0,0,7.39L625.117,71a5.223,5.223,0,0,0,7.387,0l0,0,1.532-1.531L635.57,71a5.223,5.223,0,0,0,7.387,0l0,0,21.354-21.354a5.226,5.226,0,0,0,0-7.39l-1.531-1.531v-10.9a5.227,5.227,0,0,1,1.53-3.695m-58.7,21.67a2.612,2.612,0,0,1,0-3.694h0l8.289-8.289a2.611,2.611,0,0,1,3.693,0l0,0,3.219,3.219L608.829,51.021Zm5.07,5.067,11.984-11.984,4.686,4.685L615.363,57.553Zm6.532,6.532L629.2,47.417,633.88,52.1,621.9,64.086Zm13.447,9.754a2.611,2.611,0,0,1-3.693,0l0,0-3.219-3.219,11.984-11.984,3.219,3.219a2.612,2.612,0,0,1,0,3.694h0Zm10.454,0a2.6,2.6,0,0,1-1.848.766c-.7,0-2.911-1.829-2.911-1.829a3.131,3.131,0,0,0-.436-.5l4.878-4.877c.055-.055,3.539,3.219,3.539,3.219ZM662.465,47.8l-3.219,3.219-7.682-7.679a1.306,1.306,0,1,0-1.848,1.848l7.68,7.679-4.685,4.685-7.679-7.679a1.306,1.306,0,1,0-1.847,1.847l7.679,7.68-4.685,4.685L642.2,60.107a5.215,5.215,0,0,0-1.408-4.787L619.437,33.968a5.223,5.223,0,0,0-7.387,0l-4.144,4.145V29.826a7.83,7.83,0,0,0-2.3-5.542L595.923,14.6,607.907,2.614l9.687,9.686a7.839,7.839,0,0,0,5.542,2.3h8.289l-9.371,9.371a5.226,5.226,0,0,0,0,7.39l.449.45a5.223,5.223,0,0,0,7.387,0l0,0,6.438-6.442a5.226,5.226,0,0,1,7.39,0l16.4,16.4,2.339,2.339a2.614,2.614,0,0,1,.005,3.7Zm0-23.517a7.839,7.839,0,0,0-2.3,5.542v8.289l-14.6-14.6a7.838,7.838,0,0,0-11.085,0l0,0-6.439,6.437a2.612,2.612,0,0,1-3.693,0l0,0-.45-.449a2.615,2.615,0,0,1,0-3.695L635.118,14.6h9.817a7.827,7.827,0,0,0,5.544-2.3l9.69-9.686L672.151,14.6Z" transform="translate(-592.091 1.219)" fill="#65d2de" stroke="#65d2de" stroke-width="2"/>
</svg>
