<svg xmlns="http://www.w3.org/2000/svg" width="68.847" height="69.733" viewBox="0 0 68.847 69.733">
  <g id="Group_274" data-name="Group 274" transform="translate(-7019.964 -1644.518)">
    <path id="Path_171" data-name="Path 171" d="M321.937,49.85H307.748m28.373-14.184H307.748m31.58,49.652a11.5,11.5,0,0,1-7.5-3.14,10.177,10.177,0,0,1-2.8-7.5V67.587H286.464v7.095c0,5.318,2.77,8.151,5.715,9.519a12.035,12.035,0,0,0,4.927,1.123h42.563C339.557,85.323,339.445,85.323,339.328,85.318Zm10.983-38.1V74.681c0,3.547-2.129,10.642-10.643,10.642" transform="translate(6736 1626.427)" fill="none" stroke="#fb491c" stroke-linecap="round" stroke-linejoin="round" stroke-width="5"/>
    <path id="Path_172" data-name="Path 172" d="M355.916,35.308V13.085a3.962,3.962,0,0,0-5.911-3.419,3.474,3.474,0,0,0-.425.274,12.988,12.988,0,0,1-7.854,2.29,10.292,10.292,0,0,1-5.447-1.374l-.055-.028a18.093,18.093,0,0,0-17.363,0l-.056.034a10.24,10.24,0,0,1-5.452,1.369A12.987,12.987,0,0,1,305.5,9.94a4.239,4.239,0,0,0-.425-.274,3.959,3.959,0,0,0-5.91,3.419v42.59" transform="translate(6730.395 1638.338)" fill="none" stroke="#fb491c" stroke-linecap="round" stroke-miterlimit="10" stroke-width="5"/>
  </g>
</svg>
