<svg id="Group_131" data-name="Group 131" xmlns="http://www.w3.org/2000/svg" width="148" height="37.403" viewBox="0 0 148 37.403">
  <g id="Group_130" data-name="Group 130">
    <path id="Path_107" data-name="Path 107" d="M76.46,0C71.545,2.8,64.718,2.755,64.129,2.747h-.041C63.5,2.755,56.673,2.8,51.758,0c0,0-11.171,22.376,12.314,37.4h.074C87.631,22.376,76.46,0,76.46,0" transform="translate(-49.103)" fill="#046a38"/>
    <path id="Path_108" data-name="Path 108" d="M78,5.3A37.168,37.168,0,0,1,66.4,7.4v0h-.066v0A32.278,32.278,0,0,1,54.79,5.128c-.639,1.677-4.428,12.131,1.051,22.549A26.2,26.2,0,0,0,66.336,38.3H66.4A26.069,26.069,0,0,0,76.9,27.677c4.93-9.446,2.2-19.023,1.525-21.151-.162-.511-.312-.931-.422-1.226" transform="translate(-51.346 -3.014)" fill="#fff"/>
    <path id="Path_109" data-name="Path 109" d="M78.271,6.745A35.818,35.818,0,0,1,67.093,8.77v0h-.064v0A31.121,31.121,0,0,1,55.9,6.58c-.615,1.616-4.267,11.691,1.013,21.732A25.25,25.25,0,0,0,67.027,38.554h.064A25.127,25.127,0,0,0,77.206,28.312c4.751-9.1,2.119-18.335,1.47-20.385-.156-.492-.3-.9-.407-1.181" transform="translate(-52.038 -3.868)" fill="#041e42"/>
    <path id="Path_110" data-name="Path 110" d="M71.132,26.474l-.085-.075v-.532l.085-.075q1.82.085,2.81.085.371,0,2.948-.085.83-.021,1.2-.021a7.261,7.261,0,0,1,2.278.289,2.661,2.661,0,0,1,1.352,1.016,2.815,2.815,0,0,1,.511,1.655,3.341,3.341,0,0,1-.851,2.192,4.935,4.935,0,0,1-2.767,1.447,11.439,11.439,0,0,1,1.9.309A3.64,3.64,0,0,1,81.8,33.3a2.919,2.919,0,0,1,.857,1.091,3.634,3.634,0,0,1,.314,1.554,4.886,4.886,0,0,1-.213,1.4,4.155,4.155,0,0,1-.783,1.416,5.431,5.431,0,0,1-1.378,1.2,6.088,6.088,0,0,1-1.655.724,8.391,8.391,0,0,1-2.1.223q-.255,0-1.533-.053-1.415-.032-1.532-.032-.724,0-1.778.085l-.085-.085v-.351l.085-.106a3.029,3.029,0,0,0,.713-.383,8.346,8.346,0,0,0,.154-1.884q.059-1.777.059-2.714V31.487l-.011-2.416q0-.788-.021-1.282a6.257,6.257,0,0,0-.059-.708.564.564,0,0,0-.124-.3.683.683,0,0,0-.239-.143,2.414,2.414,0,0,0-.527-.1Zm3.821,5.587q.532.041,1.2.041a4.573,4.573,0,0,0,3.065-.788,2.778,2.778,0,0,0,.862-2.16,2.626,2.626,0,0,0-.33-1.357,2.1,2.1,0,0,0-1.038-.857,5.071,5.071,0,0,0-1.921-.3,8.522,8.522,0,0,0-1.745.16q-.1.958-.1,3.342Zm.021,7.758a7.376,7.376,0,0,0,1.681.192,4.85,4.85,0,0,0,2.384-.49,3.01,3.01,0,0,0,1.272-1.357,4.365,4.365,0,0,0,.41-1.889,3.432,3.432,0,0,0-.866-2.453Q78.99,32.9,76.1,32.9q-.479,0-1.15.041v3.628Z" transform="translate(-62.001 -15.146)" fill="#fff"/>
    <path id="Path_111" data-name="Path 111" d="M79.389,71.948l-.022-.007-.012-.1.012-.012a3.106,3.106,0,0,0,.312-.115c.126-.053.216-.093.27-.121l.032.012q-.02.54-.02.649v.458q0,.169,0,.317a1.254,1.254,0,0,0,.011.176.083.083,0,0,0,.025.041.1.1,0,0,0,.05.019c.021,0,.085.007.191.013l.009.01v.055l-.009.01q-.27-.01-.381-.01c-.055,0-.192,0-.412.01l-.009-.01v-.055l.01-.01q.185-.014.211-.02a.079.079,0,0,0,.041-.022.126.126,0,0,0,.023-.059,2.3,2.3,0,0,0,.014-.255c0-.142.005-.214.005-.217v-.875c0-.021-.009-.031-.022-.031l-.014,0-.054.022-.124.054c-.051.022-.1.046-.144.07" transform="translate(-66.884 -42.079)" fill="#fff"/>
    <path id="Path_112" data-name="Path 112" d="M82.348,72.5a.614.614,0,0,1-.208-.165.37.37,0,0,1-.071-.229.435.435,0,0,1,.14-.324.52.52,0,0,1,.38-.135.606.606,0,0,1,.226.041.347.347,0,0,1,.161.127.332.332,0,0,1,.057.188.366.366,0,0,1-.067.206.745.745,0,0,1-.235.2v.011a1.685,1.685,0,0,1,.214.117.37.37,0,0,1,.114.13.392.392,0,0,1,.045.189.524.524,0,0,1-.085.282.553.553,0,0,1-.223.206.622.622,0,0,1-.286.07.527.527,0,0,1-.357-.121.4.4,0,0,1-.141-.322.427.427,0,0,1,.1-.281.66.66,0,0,1,.239-.183Zm.1.045a.55.55,0,0,0-.2.186.449.449,0,0,0-.056.225.379.379,0,0,0,.1.277.342.342,0,0,0,.254.1.379.379,0,0,0,.193-.049.312.312,0,0,0,.129-.135.412.412,0,0,0,.041-.187.275.275,0,0,0-.1-.227,1.661,1.661,0,0,0-.356-.19m.188-.163a.509.509,0,0,0,.179-.165.354.354,0,0,0,.047-.179.306.306,0,0,0-.082-.225.293.293,0,0,0-.218-.082.322.322,0,0,0-.217.073.255.255,0,0,0-.087.206.279.279,0,0,0,.056.173,1.035,1.035,0,0,0,.322.2" transform="translate(-68.446 -42.111)" fill="#fff"/>
    <path id="Path_113" data-name="Path 113" d="M85.826,72.5a.614.614,0,0,1-.208-.165.37.37,0,0,1-.071-.229.435.435,0,0,1,.14-.324.52.52,0,0,1,.38-.135.606.606,0,0,1,.226.041.347.347,0,0,1,.161.127.332.332,0,0,1,.057.188.366.366,0,0,1-.067.206.744.744,0,0,1-.235.2v.011a1.685,1.685,0,0,1,.214.117.37.37,0,0,1,.114.13.392.392,0,0,1,.045.189.524.524,0,0,1-.085.282.553.553,0,0,1-.223.206.622.622,0,0,1-.286.07.527.527,0,0,1-.357-.121.4.4,0,0,1-.141-.322.426.426,0,0,1,.1-.281.659.659,0,0,1,.239-.183Zm.1.045a.55.55,0,0,0-.2.186.449.449,0,0,0-.056.225.379.379,0,0,0,.1.277.342.342,0,0,0,.254.1.379.379,0,0,0,.192-.049.312.312,0,0,0,.129-.135.412.412,0,0,0,.041-.187.275.275,0,0,0-.1-.227,1.661,1.661,0,0,0-.356-.19m.188-.163a.509.509,0,0,0,.179-.165.354.354,0,0,0,.047-.179.306.306,0,0,0-.082-.225.293.293,0,0,0-.218-.082.322.322,0,0,0-.217.073.255.255,0,0,0-.087.206.279.279,0,0,0,.056.173,1.035,1.035,0,0,0,.322.2" transform="translate(-70.49 -42.111)" fill="#fff"/>
    <path id="Path_114" data-name="Path 114" d="M89,72.606a3.169,3.169,0,0,1,.022-.4.866.866,0,0,1,.1-.313.538.538,0,0,1,.19-.206.5.5,0,0,1,.26-.068.5.5,0,0,1,.289.085.474.474,0,0,1,.18.261,1.684,1.684,0,0,1,.055.48,1.364,1.364,0,0,1-.151.727.5.5,0,0,1-.656.175.461.461,0,0,1-.169-.168.747.747,0,0,1-.092-.259,1.836,1.836,0,0,1-.027-.319m.212-.071a2.426,2.426,0,0,0,.035.427.531.531,0,0,0,.117.277.263.263,0,0,0,.2.082.243.243,0,0,0,.183-.075.5.5,0,0,0,.108-.258,2.531,2.531,0,0,0,.034-.453,1.817,1.817,0,0,0-.08-.624.275.275,0,0,0-.265-.2.262.262,0,0,0-.244.157,1.69,1.69,0,0,0-.082.666" transform="translate(-72.55 -42.098)" fill="#fff"/>
    <path id="Path_115" data-name="Path 115" d="M60.379,10.475c.041-.049.052-.057.063-.053s.014.015.016.076.021.888.041,1.191c.012.177.055.223.09.247a.279.279,0,0,0,.07.036c.011,0,.018.008.015.016s-.021.008-.041,0-.162-.055-.289-.1c-.035-.014-.054-.021-.051-.032s.009-.008.017-.007.029-.011.028-.041c-.007-.162-.012-.324-.017-.486a.017.017,0,0,0-.012-.016q-.193-.069-.385-.141a.02.02,0,0,0-.023.007l-.223.263a.376.376,0,0,0-.07.106c-.013.034.019.064.05.076l.018.007c.013,0,.017.01.014.017s-.016.01-.033,0c-.044-.016-.12-.052-.14-.059s-.122-.041-.206-.074c-.024-.009-.033-.017-.029-.027s.011-.007.021,0l.054.017c.088.022.149-.029.215-.1q.412-.453.806-.916m-.068.757c.009,0,.011,0,.012-.009V10.7c0-.029-.008-.032-.026-.009q-.165.206-.33.407c-.007.007,0,.012,0,.014q.171.064.342.124" transform="translate(-55.085 -6.126)" fill="#fff"/>
    <path id="Path_116" data-name="Path 116" d="M63.5,11.752c.089-.272.105-.321.12-.378s.011-.093-.041-.124a.364.364,0,0,0-.058-.025c-.007,0-.013-.008-.011-.015s.013-.011.033,0c.079.026.188.068.2.071s.134.037.24.07a1.021,1.021,0,0,1,.653.414.656.656,0,0,1,.048.5.725.725,0,0,1-.34.442.769.769,0,0,1-.622.035c-.08-.025-.176-.061-.254-.091l-.15-.06-.075-.022-.108-.032c-.02-.007-.028-.013-.025-.024s.007-.01.018-.006a.271.271,0,0,0,.058.012c.041,0,.061-.031.085-.079.033-.07.078-.206.133-.376.034-.1.067-.206.1-.307m.09.237c-.06.185-.11.347-.118.38a.385.385,0,0,0-.023.14c.013.041.073.1.291.169a.656.656,0,0,0,.489-.033.619.619,0,0,0,.269-.379.655.655,0,0,0-.044-.495.792.792,0,0,0-.522-.376.485.485,0,0,0-.119-.023.033.033,0,0,0-.033.028c-.021.059-.078.237-.122.371-.023.072-.046.145-.07.216" transform="translate(-57.334 -6.584)" fill="#fff"/>
    <path id="Path_117" data-name="Path 117" d="M69.672,13.989c.165-.215.545-.789.611-.911a.29.29,0,0,0,.031-.065.045.045,0,0,0-.015-.046.225.225,0,0,0-.067-.022c-.011,0-.019-.006-.017-.015s.014-.012.041-.006c.072.015.154.038.176.041s.089.012.142.023c.02,0,.03.01.028.019s-.009.011-.024.008a.171.171,0,0,0-.091,0c-.027.012-.06.037-.135.149-.03.046-.165.243-.308.444-.169.238-.3.412-.359.491-.077.1-.091.124-.11.119s-.026-.033-.041-.127q-.1-.6-.192-1.2c-.015-.11-.037-.136-.1-.169a.291.291,0,0,0-.066-.024c-.011,0-.013-.009-.011-.016s.021-.008.05,0c.086.021.187.052.208.057s.1.019.168.035c.033.007.048.015.046.024s-.008.011-.021.008a.226.226,0,0,0-.07-.007.037.037,0,0,0-.032.031.7.7,0,0,0,.014.16q.065.5.141,1" transform="translate(-60.896 -7.452)" fill="#fff"/>
    <path id="Path_118" data-name="Path 118" d="M72.869,14.436c-.032.174-.058.317-.062.394,0,.054,0,.095.056.113.026.008.067.019.082.023s.014.007.013.013-.012.013-.033.009c-.1-.018-.223-.045-.232-.047s-.13-.019-.187-.03c-.021,0-.03-.009-.028-.02s.006-.01.017-.008a.306.306,0,0,0,.058,0c.041,0,.056-.038.074-.089.024-.074.051-.217.082-.39.02-.106.041-.212.06-.318.053-.282.063-.332.07-.391s0-.1-.041-.112a.214.214,0,0,0-.055-.018.012.012,0,0,1-.012-.014c0-.007.012-.013.032-.009.06.012.173.038.182.041s.124.017.178.027c.02,0,.028.008.026.019s-.009.009-.017.008l-.046,0c-.051,0-.071.028-.086.091s-.024.108-.075.39l-.058.318" transform="translate(-62.842 -7.962)" fill="#fff"/>
    <path id="Path_119" data-name="Path 119" d="M75.31,14.768c-.025.174-.046.318-.047.4,0,.054,0,.1.06.11.028.008.056.014.085.019.011,0,.014.007.014.013s-.012.013-.033.01c-.105-.014-.224-.037-.234-.039s-.131-.014-.188-.022c-.021,0-.03-.008-.028-.019s.005-.01.017-.009a.274.274,0,0,0,.058,0c.041,0,.055-.041.07-.092.021-.075.041-.218.068-.393l.115-.768L75,13.938c-.113-.016-.159-.011-.2.028a.349.349,0,0,0-.041.051c-.008.014-.014.016-.021.015s-.008-.007-.007-.018.066-.168.071-.182.017-.033.024-.031a.347.347,0,0,0,.077.035c.052.014.12.028.142.032q.341.053.683.1a.73.73,0,0,0,.131.008c.028,0,.045,0,.052,0s.008.012.006.023c-.007.055-.028.18-.031.2s-.008.023-.016.022-.012-.007-.011-.033v-.021c0-.055-.038-.1-.212-.129L75.419,14q-.056.385-.111.769" transform="translate(-64.167 -8.112)" fill="#fff"/>
    <path id="Path_120" data-name="Path 120" d="M78.271,14.47c.028-.058.036-.068.047-.067s.017.011.034.07.239.855.335,1.142c.055.169.108.2.148.216a.281.281,0,0,0,.076.017c.012,0,.019,0,.019.012s-.019.013-.041.012-.169-.013-.3-.028c-.036,0-.058-.007-.056-.018s.007-.011.014-.012.025-.018.016-.049q-.069-.232-.136-.465a.017.017,0,0,0-.016-.013c-.135-.012-.27-.026-.4-.041a.02.02,0,0,0-.02.012l-.149.311a.371.371,0,0,0-.041.12c0,.036.034.057.067.061h.019c.014,0,.019.005.018.013s-.013.014-.031.012c-.046,0-.128-.02-.149-.022s-.127-.009-.217-.02c-.025,0-.036-.008-.034-.019s.009-.01.018-.009l.056,0c.089,0,.136-.066.181-.153q.281-.542.547-1.089m.122.75c.009,0,.01,0,.009-.012q-.066-.255-.129-.511c-.007-.028-.016-.029-.028,0q-.106.239-.215.477c0,.009,0,.013,0,.013l.359.036" transform="translate(-65.774 -8.466)" fill="#fff"/>
    <path id="Path_121" data-name="Path 121" d="M82.69,15.839c.006.066.017.169.1.2a.432.432,0,0,0,.124.018c.009,0,.015,0,.015.009s-.017.016-.041.016c-.041,0-.25-.005-.322-.013-.044,0-.054-.011-.053-.02s0-.011.014-.012.012-.033.009-.066q-.034-.477-.065-.955h-.006q-.241.472-.5.939c-.044.079-.05.1-.068.094s-.022-.019-.056-.087c-.046-.092-.193-.418-.2-.437s-.2-.486-.216-.536H81.42q-.064.423-.131.845c0,.029-.006.062-.008.094a.059.059,0,0,0,.046.06A.359.359,0,0,0,81.4,16c.008,0,.015,0,.015.01s-.012.016-.035.014c-.071,0-.165-.016-.178-.017s-.11,0-.162-.006c-.019,0-.033-.006-.032-.019s.01-.008.02-.007a.274.274,0,0,0,.058,0c.064-.007.075-.078.087-.147q.111-.593.216-1.186c0-.02.011-.033.022-.032s.018.009.026.029q.244.594.51,1.184.307-.564.592-1.134c.007-.016.015-.029.028-.028s.018.015.021.05q.048.566.1,1.132" transform="translate(-67.855 -8.587)" fill="#fff"/>
    <path id="Path_122" data-name="Path 122" d="M88.037,15.3c-.007-.286-.008-.338-.013-.4s-.021-.092-.082-.1a.353.353,0,0,0-.063,0c-.007,0-.015,0-.015-.011s.009-.015.029-.015H88.1c.041,0,.147-.01.232-.013a.46.46,0,0,1,.347.09.318.318,0,0,1,.1.214.427.427,0,0,1-.4.456H88.3c-.009,0-.021,0-.021-.012s.011-.017.051-.018a.307.307,0,0,0,.313-.3v-.011a.388.388,0,0,0-.116-.278.322.322,0,0,0-.256-.082.215.215,0,0,0-.079.014c-.011,0-.014.017-.014.035q.011.377.021.755c0,.176.009.321.021.4.007.053.02.093.078.1.027,0,.069,0,.087,0s.015.005.016.011-.009.015-.03.016c-.106,0-.228,0-.237,0s-.127.009-.185.01c-.021,0-.031,0-.031-.014s0-.011.015-.011a.338.338,0,0,0,.057-.009c.038-.008.047-.049.054-.1.007-.077,0-.222,0-.4l-.007-.323" transform="translate(-71.885 -8.671)" fill="#fff"/>
    <path id="Path_123" data-name="Path 123" d="M91.062,14.609c.017-.062.024-.073.035-.074s.019.007.045.063.386.8.53,1.066c.082.156.142.18.183.187a.26.26,0,0,0,.078,0c.012,0,.019,0,.021.009s-.016.016-.037.019-.169.017-.3.025c-.037,0-.058,0-.059-.008s0-.012.012-.014.021-.022.007-.05q-.109-.217-.216-.435a.017.017,0,0,0-.018-.009l-.406.031a.02.02,0,0,0-.018.016c-.031.11-.062.221-.093.332a.382.382,0,0,0-.019.124c0,.037.044.051.076.049H90.9c.013,0,.019,0,.02.009s-.011.016-.028.016c-.046,0-.129,0-.15,0s-.127.013-.217.018c-.025,0-.037,0-.038-.013s.007-.012.017-.012l.056-.007c.088-.016.124-.088.151-.182q.183-.583.35-1.167m.251.717c.009,0,.009-.006.007-.014-.073-.16-.145-.32-.216-.48-.012-.027-.021-.026-.028,0q-.063.254-.129.507c0,.009,0,.013.007.012l.36-.027" transform="translate(-73.428 -8.544)" fill="#fff"/>
    <path id="Path_124" data-name="Path 124" d="M94.045,14.853c-.031-.285-.036-.336-.046-.395s-.028-.089-.09-.1a.4.4,0,0,0-.063,0c-.007,0-.015,0-.016-.009s.007-.016.028-.018c.082-.009.2-.016.208-.017l.216-.031a.583.583,0,0,1,.346.039.324.324,0,0,1,.16.231.558.558,0,0,1-.171.45q.216.217.453.412a.4.4,0,0,0,.252.1.517.517,0,0,0,.075-.006c.009,0,.018,0,.019.009s-.009.016-.044.021l-.136.02a.394.394,0,0,1-.21-.005.925.925,0,0,1-.293-.233c-.093-.089-.2-.2-.24-.244a.032.032,0,0,0-.026-.008l-.232.024c-.009,0-.012.007-.011.016s0,.029,0,.041c.02.175.036.319.054.4.012.052.028.091.086.092a.773.773,0,0,0,.087,0c.012,0,.016,0,.016.009s-.008.016-.029.018c-.106.013-.227.021-.237.022s-.124.019-.18.026c-.021,0-.031,0-.032-.012s0-.011.014-.012a.262.262,0,0,0,.056-.014c.038-.011.041-.052.045-.106,0-.078-.014-.222-.033-.4l-.035-.322m.167.142a.022.022,0,0,0,.016.02.523.523,0,0,0,.2.007.25.25,0,0,0,.136-.052.33.33,0,0,0,.079-.3c-.03-.228-.169-.348-.365-.325a.55.55,0,0,0-.124.026.021.021,0,0,0-.012.023q.034.3.068.6" transform="translate(-75.392 -8.391)" fill="#fff"/>
    <path id="Path_125" data-name="Path 125" d="M97.828,13.8c.012-.063.017-.076.028-.077s.02.006.052.058.459.76.629,1.012c.1.148.159.165.2.169a.263.263,0,0,0,.078,0c.012,0,.019,0,.021.007s-.014.018-.035.022-.168.033-.3.053c-.037,0-.058.009-.06,0s0-.012.011-.015.019-.024,0-.051q-.129-.206-.256-.412a.016.016,0,0,0-.019-.008l-.4.069a.019.019,0,0,0-.016.017c-.021.113-.041.226-.063.34a.369.369,0,0,0-.007.126c.006.036.048.046.082.041l.019,0c.013,0,.019,0,.021.008s-.009.016-.026.019c-.046.007-.129.015-.15.018s-.124.025-.216.038c-.025,0-.037,0-.039-.009s.006-.012.016-.013.041-.008.055-.012c.086-.024.114-.1.134-.2q.13-.6.242-1.2m.317.69c.009,0,.008-.007.005-.014q-.132-.228-.261-.458c-.014-.026-.023-.024-.028,0l-.082.517c0,.009,0,.012.008.012l.358-.061" transform="translate(-77.48 -8.065)" fill="#fff"/>
    <path id="Path_126" data-name="Path 126" d="M102.554,13.717c.023.062.062.159.15.162a.451.451,0,0,0,.127-.016c.009,0,.016,0,.017,0s-.013.021-.035.026c-.041.011-.247.062-.317.074-.045.007-.055,0-.057,0s0-.012.01-.016,0-.035-.009-.066q-.16-.451-.317-.9h-.005q-.11.519-.235,1.038c-.022.088-.024.106-.041.109s-.027-.013-.077-.069c-.069-.076-.3-.351-.312-.367s-.324-.415-.353-.46h-.007q.05.425.1.85c0,.029.011.061.017.092a.059.059,0,0,0,.061.045.369.369,0,0,0,.074-.006c.008,0,.016,0,.017.006s-.008.019-.031.023c-.071.015-.163.028-.178.031s-.108.028-.159.038c-.019,0-.033,0-.036-.01s.008-.011.017-.013a.293.293,0,0,0,.056-.017c.061-.023.052-.095.046-.165q-.049-.6-.106-1.2c0-.02,0-.034.014-.036s.019,0,.033.021q.4.508.812,1.005.149-.626.275-1.252c0-.018.007-.032.02-.035s.021.01.033.041q.2.533.4,1.064" transform="translate(-79.579 -7.41)" fill="#fff"/>
    <path id="Path_127" data-name="Path 127" d="M105.292,12.281c-.075-.277-.089-.326-.108-.382s-.041-.082-.1-.08a.4.4,0,0,0-.063.011c-.007,0-.015,0-.017-.007s0-.017.025-.022c.082-.022.192-.047.206-.052s.124-.041.176-.055c.02-.005.03,0,.033.006s0,.012-.012.014a.332.332,0,0,0-.043.018c-.047.021-.052.056-.038.12s.026.107.1.383l.069.247c.071.255.161.348.262.4a.394.394,0,0,0,.311.015.415.415,0,0,0,.255-.215.681.681,0,0,0-.025-.463L106.254,12c-.085-.274-.1-.323-.121-.378s-.045-.082-.108-.076a.361.361,0,0,0-.063.013c-.007,0-.015,0-.017-.006s0-.017.024-.023c.082-.025.18-.05.191-.054s.095-.035.148-.052c.019-.007.029-.006.033,0s0,.013-.011.015a.312.312,0,0,0-.041.019c-.045.026-.05.059-.035.121s.029.106.115.38c.019.063.041.124.059.188a.684.684,0,0,1-.007.577.588.588,0,0,1-.347.247.612.612,0,0,1-.422-.014.582.582,0,0,1-.289-.42l-.07-.259" transform="translate(-81.957 -6.711)" fill="#fff"/>
    <path id="Path_128" data-name="Path 128" d="M109.822,12.069c-.03,0-.034-.01-.05-.057-.029-.087-.045-.159-.052-.188s0-.03.005-.033.015,0,.019.015a.339.339,0,0,0,.027.063.263.263,0,0,0,.334.082.253.253,0,0,0,.188-.305.153.153,0,0,0,0-.019c-.041-.12-.12-.169-.319-.238l-.1-.035c-.244-.085-.323-.179-.363-.3a.345.345,0,0,1,.227-.431l.035-.009a.763.763,0,0,1,.171-.041.292.292,0,0,0,.065-.014c.014,0,.019,0,.022.006s.016.068.059.186c.01.028.011.041,0,.044s-.016,0-.022-.017A.314.314,0,0,0,110,10.7c-.017-.015-.091-.07-.254-.013a.213.213,0,0,0-.155.258l.006.019c.034.1.1.146.32.216l.064.02c.27.086.36.174.41.312a.371.371,0,0,1-.054.343.534.534,0,0,1-.255.171.623.623,0,0,1-.265.038" transform="translate(-84.594 -6.206)" fill="#fff"/>
  </g>
  <path id="Path_129" data-name="Path 129" d="M5.949,107.576a2.171,2.171,0,0,1-1.232,1.972,3.148,3.148,0,0,1-1.567.345c-.2,0-.37,0-.5,0l-1.212-.025q-.65,0-1,.03l-.051-.051V109.7l.025-.061a1.75,1.75,0,0,0,.405-.3,2.6,2.6,0,0,0,.056-.674l.015-1.136v-2.572a11.3,11.3,0,0,0-.066-1.573.222.222,0,0,0-.172-.187,5.656,5.656,0,0,0-.594-.051L0,103.1v-.345l.051-.046q.452.031,1.552.031.7,0,1.263-.025.446-.02.756-.02a2.135,2.135,0,0,1,1.856.644,1.346,1.346,0,0,1,.233.781,1.52,1.52,0,0,1-.562,1.2,1.971,1.971,0,0,1-.558.339,5.7,5.7,0,0,1-.731.219q2.09.092,2.089,1.7m-1.77-3.211q0-1.121-1.167-1.12a4.432,4.432,0,0,0-.654.04q-.02.533-.02.984v1.4c.078.006.233.01.466.01a1.21,1.21,0,0,0,1.207-.588,1.628,1.628,0,0,0,.167-.726m.218,3.368q0-1.522-1.6-1.522-.2,0-.461.016v2.348c0,.254.007.5.02.745a3.59,3.59,0,0,0,.583.036,1.372,1.372,0,0,0,1.1-.447,1.766,1.766,0,0,0,.36-1.177" transform="translate(38.483 -93.239)" fill="#0f213f"/>
  <path id="Path_130" data-name="Path 130" d="M16.383,108.178a11.323,11.323,0,0,0-.111,1.674l-.051.051-3.688-.03q-.923,0-1.3.03l-.051-.051v-.142l.025-.061a1.778,1.778,0,0,0,.405-.3,2.689,2.689,0,0,0,.056-.675l.016-1.136v-2.572a11.357,11.357,0,0,0-.067-1.572.22.22,0,0,0-.172-.187,5.447,5.447,0,0,0-.594-.051l-.051-.05v-.345l.051-.046q.512.031,1.582.03.954,0,3.627-.03l.056.041-.065.563c-.021.179-.036.331-.046.456l-.035.472-.051.055h-.294l-.05-.05a2.078,2.078,0,0,0-.081-.786,1.168,1.168,0,0,0-.546-.112c-.326-.027-.613-.04-.859-.04q-.441,0-.893.035-.055.533-.055,1.476v1.05c.268.017.484.025.649.025l.664-.005q.467,0,.527-.076a1.6,1.6,0,0,0,.107-.684l.051-.051h.314l.051.051q-.02.568-.02,1.04,0,.512.02,1.12l-.051.046h-.339l-.051-.05a1.613,1.613,0,0,0-.081-.693q-.081-.11-.492-.145c-.207-.017-.426-.025-.659-.025s-.477.009-.69.025V108q0,.664.025,1.288h.69a7.869,7.869,0,0,0,1.816-.117.165.165,0,0,0,.081-.055.914.914,0,0,0,.1-.3l.122-.629.051-.056h.309Z" transform="translate(34.546 -93.247)" fill="#0f213f"/>
  <path id="Path_131" data-name="Path 131" d="M26.289,108.178a11.318,11.318,0,0,0-.112,1.674l-.051.051-3.688-.03q-.923,0-1.3.03l-.051-.051v-.142l.025-.061a1.778,1.778,0,0,0,.405-.3,2.643,2.643,0,0,0,.056-.675l.015-1.136v-2.572a11.394,11.394,0,0,0-.066-1.572.221.221,0,0,0-.172-.187,5.467,5.467,0,0,0-.594-.051l-.051-.05v-.345l.051-.046q.522.031,1.531.03,1.045,0,1.587-.03l.051.046v.349l-.051.046a5.426,5.426,0,0,0-.593.051.22.22,0,0,0-.173.187,11.431,11.431,0,0,0-.065,1.572V108c0,.443.008.872.025,1.288h.689a7.865,7.865,0,0,0,1.816-.117.162.162,0,0,0,.081-.055.9.9,0,0,0,.1-.3l.123-.629.05-.056h.309Z" transform="translate(30.935 -93.247)" fill="#0f213f"/>
  <path id="Path_132" data-name="Path 132" d="M36.687,103.111l-.051.05a1.719,1.719,0,0,0-.454.084.6.6,0,0,0-.211.231,9.086,9.086,0,0,0-.436.954l-.36.857L34.5,106.94q-.878,2.13-1.182,3h-.771l-2.328-5.645a4.061,4.061,0,0,0-.517-1.014,1.1,1.1,0,0,0-.619-.117l-.051-.055v-.335l.056-.056q.533.03,1.344.03,1.015,0,1.847-.03l.051.056v.34l-.046.05a1.722,1.722,0,0,0-.674.092.181.181,0,0,0-.086.172,5.2,5.2,0,0,0,.33.964l.239.6,1.282,3.17,1.127-2.825q.066-.162.3-.817a6.063,6.063,0,0,0,.345-1.1c0-.111-.037-.179-.112-.2a4,4,0,0,0-.679-.056l-.051-.05v-.345l.056-.051q.573.03,1.192.03.441,0,1.08-.03l.056.056Z" transform="translate(27.901 -93.247)" fill="#0f213f"/>
  <path id="Path_133" data-name="Path 133" d="M47.44,108.178a11.316,11.316,0,0,0-.112,1.674l-.051.051-3.688-.03q-.923,0-1.3.03l-.051-.051v-.142l.025-.061a1.778,1.778,0,0,0,.405-.3,2.69,2.69,0,0,0,.056-.675l.015-1.136v-2.572a11.4,11.4,0,0,0-.066-1.572.221.221,0,0,0-.172-.187,5.467,5.467,0,0,0-.594-.051l-.051-.05v-.345l.051-.046q.512.031,1.582.03.953,0,3.627-.03l.056.041-.066.563q-.03.269-.046.456l-.035.472-.051.055H46.68l-.051-.05a2.064,2.064,0,0,0-.081-.786,1.167,1.167,0,0,0-.545-.112c-.326-.027-.613-.04-.86-.04q-.441,0-.893.035-.055.533-.055,1.476v1.05q.4.026.649.025l.665-.005q.466,0,.527-.076a1.609,1.609,0,0,0,.106-.684l.051-.051h.315l.051.051q-.02.568-.02,1.04,0,.512.02,1.12l-.051.046h-.34l-.05-.05a1.613,1.613,0,0,0-.081-.693c-.054-.073-.219-.121-.492-.145-.207-.017-.426-.025-.66-.025s-.477.009-.689.025V108c0,.443.008.872.025,1.288h.689a7.865,7.865,0,0,0,1.816-.117.162.162,0,0,0,.081-.055.9.9,0,0,0,.1-.3l.123-.629.05-.056h.309Z" transform="translate(23.225 -93.247)" fill="#0f213f"/>
  <path id="Path_134" data-name="Path 134" d="M59.592,105.876a3.883,3.883,0,0,1-1.121,2.851,3.761,3.761,0,0,1-1.329.857,5.034,5.034,0,0,1-1.953.309l-1.79-.03q-.731-.01-1.207.03l-.051-.051V109.7l.025-.061a1.75,1.75,0,0,0,.405-.3,2.635,2.635,0,0,0,.056-.674l.015-1.136v-2.572a11.406,11.406,0,0,0-.066-1.573.222.222,0,0,0-.172-.187,5.657,5.657,0,0,0-.594-.051l-.051-.05v-.345l.051-.046q.538.031,1.024.031,1.182,0,2.131-.031.471-.015.948-.015a5.371,5.371,0,0,1,2.024.3,2.578,2.578,0,0,1,1.207,1.035,3.482,3.482,0,0,1,.447,1.852m-1.558.243a3.124,3.124,0,0,0-.679-2.16,1.915,1.915,0,0,0-.888-.558,5.136,5.136,0,0,0-1.415-.153,5.979,5.979,0,0,0-.9.066q-.051.568-.051,2.749l.01,2.216a8.863,8.863,0,0,0,.041.984,5.829,5.829,0,0,0,.913.071,3.581,3.581,0,0,0,1.592-.294,2.261,2.261,0,0,0,1-1.085,4.183,4.183,0,0,0,.381-1.836" transform="translate(19.614 -93.239)" fill="#0f213f"/>
  <path id="Path_135" data-name="Path 135" d="M70.93,108.178a11.324,11.324,0,0,0-.111,1.674l-.051.051-3.688-.03q-.923,0-1.3.03l-.051-.051v-.142l.025-.061a1.778,1.778,0,0,0,.405-.3,2.689,2.689,0,0,0,.056-.675l.016-1.136v-2.572a11.357,11.357,0,0,0-.067-1.572.22.22,0,0,0-.172-.187,5.447,5.447,0,0,0-.593-.051l-.051-.05v-.345l.051-.046q.512.031,1.582.03.954,0,3.627-.03l.056.041-.065.563c-.021.179-.036.331-.046.456l-.035.472-.051.055H70.17l-.05-.05a2.079,2.079,0,0,0-.081-.786,1.168,1.168,0,0,0-.546-.112c-.326-.027-.613-.04-.859-.04q-.441,0-.893.035-.055.533-.055,1.476v1.05c.268.017.484.025.649.025L69,105.9q.467,0,.527-.076a1.6,1.6,0,0,0,.107-.684l.051-.051H70l.051.051q-.02.568-.02,1.04,0,.512.02,1.12l-.051.046h-.339l-.051-.05a1.613,1.613,0,0,0-.081-.693q-.081-.11-.492-.145c-.207-.017-.426-.025-.659-.025s-.477.009-.69.025V108q0,.664.025,1.288h.69a7.869,7.869,0,0,0,1.815-.117.165.165,0,0,0,.081-.055.914.914,0,0,0,.1-.3l.122-.629.051-.056h.309Z" transform="translate(14.661 -93.247)" fill="#0f213f"/>
  <path id="Path_136" data-name="Path 136" d="M82.2,109.842l-.05.051-.193-.005c-.463-.017-.752-.025-.867-.025-.173,0-.446.01-.822.03a1.422,1.422,0,0,0-.193-.406l-1.258-2.1-.564-.857a1.413,1.413,0,0,0-.3-.309l.056-.172c.077,0,.135.005.173.005a1.624,1.624,0,0,0,.781-.158,1.338,1.338,0,0,0,.477-.5,1.585,1.585,0,0,0,.218-.847,1.153,1.153,0,0,0-.639-1.157,2.173,2.173,0,0,0-.888-.142,2.872,2.872,0,0,0-.487.04q-.051.5-.051,1.694v2.653a11.448,11.448,0,0,0,.065,1.573.222.222,0,0,0,.173.187,5.631,5.631,0,0,0,.594.051l.051.051v.339l-.046.051q-.506-.031-1.562-.03-1.09,0-1.562.03l-.051-.046V109.5l.051-.051a5.651,5.651,0,0,0,.594-.051.221.221,0,0,0,.172-.187,11.3,11.3,0,0,0,.066-1.573v-2.683a11.29,11.29,0,0,0-.066-1.572.222.222,0,0,0-.172-.187,5.459,5.459,0,0,0-.594-.051l-.051-.05v-.345l.051-.046q.5.031,1.562.03.62,0,1-.015.766-.03,1.147-.03a3.876,3.876,0,0,1,1.288.157,1.2,1.2,0,0,1,.74.721,1.7,1.7,0,0,1,.092.588,2.029,2.029,0,0,1-1.552,1.958q.253.425.537.862l.782,1.2a5.51,5.51,0,0,0,.918,1.212.589.589,0,0,0,.325.076l.05.051Z" transform="translate(11.05 -93.239)" fill="#0f213f"/>
  <path id="Path_137" data-name="Path 137" d="M92.505,108.178a11.324,11.324,0,0,0-.111,1.674l-.051.051-3.688-.03q-.923,0-1.3.03l-.051-.051v-.142l.025-.061a1.778,1.778,0,0,0,.405-.3,2.69,2.69,0,0,0,.056-.675l.016-1.136v-2.572a11.358,11.358,0,0,0-.067-1.572.22.22,0,0,0-.172-.187,5.448,5.448,0,0,0-.594-.051l-.051-.05v-.345l.051-.046q.512.031,1.582.03.954,0,3.627-.03l.056.041-.065.563c-.021.179-.036.331-.046.456l-.035.472-.051.055h-.294l-.05-.05a2.078,2.078,0,0,0-.081-.786,1.168,1.168,0,0,0-.546-.112c-.326-.027-.613-.04-.859-.04q-.441,0-.893.035-.055.533-.055,1.476v1.05c.268.017.484.025.649.025l.664-.005q.467,0,.527-.076a1.6,1.6,0,0,0,.107-.684l.051-.051h.314l.051.051q-.02.568-.02,1.04,0,.512.02,1.12l-.051.046h-.339l-.051-.05a1.613,1.613,0,0,0-.081-.693q-.081-.11-.492-.145c-.207-.017-.426-.025-.659-.025s-.477.009-.69.025V108q0,.664.025,1.288h.69a7.869,7.869,0,0,0,1.816-.117.165.165,0,0,0,.081-.055.914.914,0,0,0,.1-.3l.122-.629.051-.056h.309Z" transform="translate(6.796 -93.247)" fill="#0f213f"/>
  <path id="Path_138" data-name="Path 138" d="M106.554,107.461a2.4,2.4,0,0,1-.477,1.475,2.486,2.486,0,0,1-1.09.838,3.9,3.9,0,0,1-1.476.254,4.821,4.821,0,0,1-2.09-.487l-.061-.111a7.381,7.381,0,0,0,.142-1.659l.051-.05h.325l.045.05v.117a6.075,6.075,0,0,0,.061.751,1.458,1.458,0,0,0,.655.557,2.278,2.278,0,0,0,1.024.244,1.447,1.447,0,0,0,1.39-.7,1.528,1.528,0,0,0,.2-.746.964.964,0,0,0-.542-.928,3.057,3.057,0,0,0-.868-.227,4.537,4.537,0,0,1-1.78-.523,1.715,1.715,0,0,1-.644-1.476,2.1,2.1,0,0,1,.7-1.658,3.019,3.019,0,0,1,2.059-.649,4.156,4.156,0,0,1,1.917.381l.036.121a8.739,8.739,0,0,0-.147,1.451l-.056.051h-.32l-.05-.051a6.308,6.308,0,0,0-.051-.791,1.193,1.193,0,0,0-.548-.405,2.241,2.241,0,0,0-.867-.173,1.538,1.538,0,0,0-1.075.36,1.136,1.136,0,0,0-.37.877.949.949,0,0,0,.421.858,4.085,4.085,0,0,0,1.294.339c.071.011.269.044.594.1a2.908,2.908,0,0,1,.553.147,1.532,1.532,0,0,1,.771.588,1.938,1.938,0,0,1,.279,1.075" transform="translate(1.533 -93.181)" fill="#0f213f"/>
  <path id="Path_139" data-name="Path 139" d="M117.839,108.917l-.233.517a4.882,4.882,0,0,1-2.394.588,3.688,3.688,0,0,1-3.621-1.907,4.133,4.133,0,0,1-.451-1.912,3.382,3.382,0,0,1,1.105-2.652,4.445,4.445,0,0,1,3.09-1.02,6.776,6.776,0,0,1,2.429.452l.065.076a8.508,8.508,0,0,0-.213,1.638l-.045.051h-.3l-.05-.055a7.046,7.046,0,0,0-.056-.852,2.319,2.319,0,0,0-1.831-.715,2.462,2.462,0,0,0-1.932.78,3.059,3.059,0,0,0-.7,2.12,3.308,3.308,0,0,0,1.248,2.779,2.82,2.82,0,0,0,1.781.518,4.133,4.133,0,0,0,1.983-.523Z" transform="translate(-2.032 -93.181)" fill="#0f213f"/>
  <path id="Path_140" data-name="Path 140" d="M130.708,109.851l-.051.051q-.5-.03-1.563-.03-1.086,0-1.562.03l-.051-.046v-.344l.056-.051a5.584,5.584,0,0,0,.593-.051.221.221,0,0,0,.173-.187,11.4,11.4,0,0,0,.066-1.573v-1.223q-.258-.025-1.644-.025-1.277,0-1.683.025v1.223a11.44,11.44,0,0,0,.065,1.573.222.222,0,0,0,.173.187,5.628,5.628,0,0,0,.594.051l.051.051v.339l-.046.051q-.506-.03-1.562-.03-1.09,0-1.562.03l-.051-.046v-.344l.051-.051a5.648,5.648,0,0,0,.594-.051.221.221,0,0,0,.172-.187,11.3,11.3,0,0,0,.066-1.573v-2.683a11.3,11.3,0,0,0-.066-1.572.222.222,0,0,0-.172-.187,5.462,5.462,0,0,0-.594-.051l-.051-.05v-.345l.051-.046q.487.03,1.562.03,1.1,0,1.562-.03l.046.046v.35l-.051.045a5.443,5.443,0,0,0-.594.051.222.222,0,0,0-.173.187,11.435,11.435,0,0,0-.065,1.572v.838c.358.016.852.025,1.481.025q1.482,0,1.847-.025v-.838a11.4,11.4,0,0,0-.066-1.572.222.222,0,0,0-.173-.187,5.4,5.4,0,0,0-.593-.051l-.056-.05v-.345l.051-.046q.492.03,1.562.03,1.106,0,1.563-.03l.051.046v.35l-.046.045a5.3,5.3,0,0,0-.6.051.22.22,0,0,0-.172.187,11.367,11.367,0,0,0-.067,1.572v2.683a11.372,11.372,0,0,0,.067,1.573.219.219,0,0,0,.172.187,5.605,5.605,0,0,0,.594.051l.051.051Z" transform="translate(-6.248 -93.247)" fill="#0f213f"/>
  <path id="Path_141" data-name="Path 141" d="M144.26,106.056a3.913,3.913,0,0,1-1.09,2.936,3.967,3.967,0,0,1-2.9,1.035,3.711,3.711,0,0,1-2.724-.977,3.644,3.644,0,0,1-.989-2.716,3.444,3.444,0,0,1,1.861-3.377,4.608,4.608,0,0,1,2.085-.426,3.855,3.855,0,0,1,2.754.928,3.4,3.4,0,0,1,1,2.6m-1.562.264a4.081,4.081,0,0,0-.591-2.336,1.964,1.964,0,0,0-1.732-.865,1.936,1.936,0,0,0-2,1.355,4.53,4.53,0,0,0-.254,1.557,4.58,4.58,0,0,0,.578,2.475,1.983,1.983,0,0,0,1.791.939,1.911,1.911,0,0,0,1.943-1.425,5.15,5.15,0,0,0,.264-1.7" transform="translate(-11.3 -93.181)" fill="#0f213f"/>
  <path id="Path_142" data-name="Path 142" d="M157.877,106.056a3.913,3.913,0,0,1-1.09,2.936,3.967,3.967,0,0,1-2.9,1.035,3.711,3.711,0,0,1-2.724-.977,3.644,3.644,0,0,1-.989-2.716,3.444,3.444,0,0,1,1.861-3.377,4.608,4.608,0,0,1,2.085-.426,3.855,3.855,0,0,1,2.754.928,3.4,3.4,0,0,1,1,2.6m-1.562.264a4.08,4.08,0,0,0-.591-2.336,1.964,1.964,0,0,0-1.732-.865,1.936,1.936,0,0,0-2,1.355,4.53,4.53,0,0,0-.254,1.557,4.579,4.579,0,0,0,.578,2.475,1.983,1.983,0,0,0,1.791.939,1.911,1.911,0,0,0,1.943-1.425,5.149,5.149,0,0,0,.264-1.7" transform="translate(-16.263 -93.181)" fill="#0f213f"/>
  <path id="Path_143" data-name="Path 143" d="M169.14,108.178a11.314,11.314,0,0,0-.112,1.674l-.051.051-3.688-.03q-.923,0-1.3.03l-.051-.051v-.142l.025-.061a1.778,1.778,0,0,0,.405-.3,2.639,2.639,0,0,0,.056-.675l.015-1.136v-2.572a11.391,11.391,0,0,0-.066-1.572.221.221,0,0,0-.172-.187,5.468,5.468,0,0,0-.594-.051l-.051-.05v-.345l.051-.046q.522.031,1.531.03,1.045,0,1.587-.03l.051.046v.349l-.051.046a5.427,5.427,0,0,0-.593.051.22.22,0,0,0-.173.187,11.434,11.434,0,0,0-.065,1.572V108c0,.443.008.872.025,1.288h.689a7.866,7.866,0,0,0,1.816-.117.162.162,0,0,0,.081-.055.9.9,0,0,0,.1-.3l.123-.629.05-.056h.309Z" transform="translate(-21.141 -93.247)" fill="#0f213f"/>
  <path id="Path_144" data-name="Path 144" d="M66.71,126.612l-.193.471a5.22,5.22,0,0,1-2.4.573,4.25,4.25,0,0,1-2.975-1.04,3.5,3.5,0,0,1-1.143-2.719,3.582,3.582,0,0,1,.57-2.021,3.539,3.539,0,0,1,1.507-1.294,4.984,4.984,0,0,1,2.1-.428,6.307,6.307,0,0,1,1.333.142,5.642,5.642,0,0,1,1.1.34l.035.051a6.5,6.5,0,0,0-.217,1.4l-.036.04h-.238l-.04-.04-.051-.862a2.746,2.746,0,0,0-.9-.459,3.62,3.62,0,0,0-1.092-.165,3.173,3.173,0,0,0-1.537.368,2.556,2.556,0,0,0-1.055,1.065,3.553,3.553,0,0,0-.375,1.707,3.5,3.5,0,0,0,.441,1.78,3.021,3.021,0,0,0,1.2,1.177,3.712,3.712,0,0,0,1.782.411,4.236,4.236,0,0,0,.867-.086,3.3,3.3,0,0,0,.692-.213,3.133,3.133,0,0,0,.53-.309Z" transform="translate(-21.511 -99.605)" fill="#0f213f"/>
  <path id="Path_145" data-name="Path 145" d="M71.342,127.553l-.046-.041v-.264l.046-.04a2.163,2.163,0,0,0,.477-.039.4.4,0,0,0,.191-.132,4.128,4.128,0,0,0,.337-.647l.533-1.156,1.38-3.124q.39-.918.776-1.836h.329l2.167,5.093.289.679c.085.193.182.4.292.629a1.962,1.962,0,0,0,.228.4.431.431,0,0,0,.158.093,1.681,1.681,0,0,0,.418.039l.041.04v.264l-.041.041q-.538-.046-.968-.046-.843.026-1.684.046l-.041-.041v-.264l.041-.04a4.071,4.071,0,0,0,.71-.049.168.168,0,0,0,.142-.175.87.87,0,0,0-.071-.294l-.623-1.547H73.483l-.553,1.3a1.539,1.539,0,0,0-.147.513.2.2,0,0,0,.137.187,2.3,2.3,0,0,0,.689.067l.046.04v.264l-.04.041q-.655-.04-1.147-.041-.558,0-1.126.041m2.313-2.845h2.567l-1.273-3.058Z" transform="translate(-25.632 -99.648)" fill="#0f213f"/>
  <path id="Path_146" data-name="Path 146" d="M84.18,120.387l.634.02q.623.02.817.02.173,0,1.455-.04l.041.036v.254l-.041.036q-.35.01-.54.031a.653.653,0,0,0-.277.076.358.358,0,0,0-.114.261,4.506,4.506,0,0,0-.028.57l-.01,1.167v2.349l.005.989a7.166,7.166,0,0,0,.03.74.482.482,0,0,0,.074.224.381.381,0,0,0,.185.093,3.918,3.918,0,0,0,.674.058l.041.031v.254l-.041.041-.892-.03c-.24-.007-.428-.01-.563-.01q-.157,0-1.451.041l-.04-.041V127.3l.04-.031a5.286,5.286,0,0,0,.629-.05.464.464,0,0,0,.21-.079.4.4,0,0,0,.086-.205,4.786,4.786,0,0,0,.038-.7l0-1.07v-2.349l-.01-.989q-.006-.579-.028-.745a.473.473,0,0,0-.071-.224.369.369,0,0,0-.185-.091,4.356,4.356,0,0,0-.675-.056l-.04-.036v-.254Z" transform="translate(-30.314 -99.69)" fill="#0f213f"/>
  <path id="Path_147" data-name="Path 147" d="M89.575,120.419l.04-.036q.928.041,1.446.041.573,0,1.547-.036c.24-.007.415-.01.523-.01a2.442,2.442,0,0,1,1.74.466,1.526,1.526,0,0,1,.456,1.105,1.738,1.738,0,0,1-.223.838,1.99,1.99,0,0,1-.66.7,3.274,3.274,0,0,1-1.2.438q.141.2.512.686l.72.953q.35.472.751,1a3.189,3.189,0,0,0,.517.593.619.619,0,0,0,.2.083,1.552,1.552,0,0,0,.266.016l.041.04v.238l-.046.046a4.607,4.607,0,0,0-.578-.03c-.24,0-.5.01-.786.03q-.35-.427-1.1-1.476-.872-1.217-1.786-2.257L92,123.69c.176.01.313.015.411.015a2.065,2.065,0,0,0,1.375-.421,1.448,1.448,0,0,0,.5-1.167,1.194,1.194,0,0,0-.447-1.012,1.936,1.936,0,0,0-1.207-.342,3.366,3.366,0,0,0-1,.147,10.223,10.223,0,0,0-.076,1.9v2.348l.005.989a7.111,7.111,0,0,0,.03.74.473.473,0,0,0,.074.223.381.381,0,0,0,.185.094,3.953,3.953,0,0,0,.675.058l.041.031v.254l-.041.04c-.017,0-.314-.01-.893-.031q-.36-.01-.562-.01-.157,0-1.451.04l-.04-.04V127.3l.04-.031a5.131,5.131,0,0,0,.629-.05.467.467,0,0,0,.211-.079.411.411,0,0,0,.086-.205,4.819,4.819,0,0,0,.037-.7l.005-1.07v-2.348l-.01-.989q-.006-.579-.028-.745a.454.454,0,0,0-.071-.223.363.363,0,0,0-.185-.092,4.432,4.432,0,0,0-.675-.056l-.04-.036Z" transform="translate(-32.295 -99.688)" fill="#0f213f"/>
  <path id="Path_148" data-name="Path 148" d="M100.542,123.977a4.472,4.472,0,0,1,.219-1.42,3.285,3.285,0,0,1,.743-1.22,3.591,3.591,0,0,1,1.265-.867,4.349,4.349,0,0,1,1.674-.307,3.916,3.916,0,0,1,2.755.941,3.317,3.317,0,0,1,1.024,2.569,4.2,4.2,0,0,1-.5,2.059,3.516,3.516,0,0,1-1.439,1.42,4.332,4.332,0,0,1-2.1.507,4.08,4.08,0,0,1-1.521-.276,3.1,3.1,0,0,1-1.184-.824,3.344,3.344,0,0,1-.71-1.268,4.511,4.511,0,0,1-.221-1.314m1.055-.334a4.945,4.945,0,0,0,.2,1.332,3.509,3.509,0,0,0,.6,1.222,2.573,2.573,0,0,0,.918.758,2.916,2.916,0,0,0,2.584-.112,2.257,2.257,0,0,0,.933-1.118,4.329,4.329,0,0,0,.32-1.7,4.531,4.531,0,0,0-.365-1.851,2.447,2.447,0,0,0-1.04-1.2,3.016,3.016,0,0,0-1.5-.376,2.511,2.511,0,0,0-1.943.771,3.257,3.257,0,0,0-.71,2.277" transform="translate(-36.293 -99.607)" fill="#0f213f"/>
</svg>
