<svg xmlns="http://www.w3.org/2000/svg" width="23.999" height="24" viewBox="0 0 23.999 24">
  <g id="Page-1" transform="translate(0 24) rotate(-90)">
    <g id="Dribbble-Light-Preview">
      <g id="icons">
        <path id="instagram-_167_" data-name="instagram-[#167]" d="M7.044.147A7.14,7.14,0,0,0,2.03,2.074a7.106,7.106,0,0,0-1.932,5C.043,8.283-.278,17.4.653,19.788a6.045,6.045,0,0,0,3.493,3.483,8.749,8.749,0,0,0,2.9.554c10.633.481,14.574.219,16.237-4.036a8.685,8.685,0,0,0,.554-2.892C24.32,6.236,23.755,3.925,21.9,2.074,20.432.608,18.7-.39,7.044.147m.1,21.533a6.608,6.608,0,0,1-2.217-.409,3.906,3.906,0,0,1-2.266-2.259C1.949,17.2,2.184,8.568,2.247,7.173a5.1,5.1,0,0,1,1.3-3.582C4.745,2.4,6.288,1.816,16.792,2.29a5.132,5.132,0,0,1,3.591,1.3c1.194,1.191,1.786,2.746,1.3,13.209a6.572,6.572,0,0,1-.411,2.212c-1.081,2.769-3.567,3.154-14.134,2.668M16.908,5.628A1.433,1.433,0,1,0,18.34,4.2a1.432,1.432,0,0,0-1.433,1.429M5.835,11.986a6.131,6.131,0,1,0,6.131-6.115,6.124,6.124,0,0,0-6.131,6.115m2.152,0a3.98,3.98,0,1,1,3.98,3.971,3.976,3.976,0,0,1-3.98-3.971" fill="#0f213f" fill-rule="evenodd"/>
      </g>
    </g>
  </g>
</svg>
