<svg id="Group_257" data-name="Group 257" xmlns="http://www.w3.org/2000/svg" width="24" height="24" viewBox="0 0 24 24">
  <path id="linkedin-svgrepo-com" d="M22.224,0H1.749A1.749,1.749,0,0,0,0,1.728V22.271A1.75,1.75,0,0,0,1.749,24h20.5A1.756,1.756,0,0,0,24,22.272V1.729A1.757,1.757,0,0,0,22.244,0h-.022ZM7.118,20.452H3.554V9H7.118ZM5.337,7.433A2.064,2.064,0,1,1,7.4,5.369h0v0A2.062,2.062,0,0,1,5.338,7.434h0Zm15.11,13.019H16.893V14.883c0-1.328-.027-3.037-1.852-3.037-1.853,0-2.136,1.445-2.136,2.939v5.667H9.351V9h3.414v1.561h.046A3.75,3.75,0,0,1,16.043,8.71l.145,0h-.007c3.6,0,4.267,2.37,4.267,5.455v6.286Z" transform="translate(0 24) rotate(-90)" fill="#0f213f"/>
</svg>
