<svg xmlns="http://www.w3.org/2000/svg" width="208.001" height="52.566" viewBox="0 0 208.001 52.566">
  <g id="Group_20" data-name="Group 20" transform="translate(61.565 -28.072)">
    <g id="Group_131" data-name="Group 131" transform="translate(-61.565 28.072)">
      <g id="Group_130" data-name="Group 130">
        <path id="Path_107" data-name="Path 107" d="M87.551,0c-6.908,3.931-16.5,3.872-17.329,3.86h-.058c-.827.012-10.421.071-17.329-3.86,0,0-15.7,31.447,17.306,52.566h.1C103.251,31.447,87.551,0,87.551,0" transform="translate(-49.103)" fill="#046a38"/>
        <path id="Path_108" data-name="Path 108" d="M88.169,5.368a52.236,52.236,0,0,1-16.3,2.955v0h-.093v0A45.364,45.364,0,0,1,55.548,5.128c-.9,2.356-6.223,17.049,1.477,31.69A36.823,36.823,0,0,0,71.776,51.755h.093a36.638,36.638,0,0,0,14.75-14.937c6.928-13.275,3.09-26.736,2.144-29.726-.228-.718-.439-1.309-.593-1.722" transform="translate(-50.708 -2.157)" fill="#fff"/>
        <path id="Path_109" data-name="Path 109" d="M88.071,6.812a50.339,50.339,0,0,1-15.71,2.846v0h-.09v0A43.738,43.738,0,0,1,56.629,6.58c-.864,2.27-6,16.43,1.424,30.542a35.486,35.486,0,0,0,14.216,14.4h.09a35.313,35.313,0,0,0,14.216-14.4c6.678-12.795,2.978-25.768,2.065-28.65-.22-.691-.424-1.261-.572-1.66" transform="translate(-51.203 -2.768)" fill="#041e42"/>
        <path id="Path_110" data-name="Path 110" d="M71.167,26.76l-.12-.1v-.748l.12-.1q2.558.12,3.949.12.521,0,4.143-.12,1.166-.03,1.69-.03a10.2,10.2,0,0,1,3.2.406,3.74,3.74,0,0,1,1.9,1.428,3.957,3.957,0,0,1,.718,2.326,4.7,4.7,0,0,1-1.2,3.081,6.936,6.936,0,0,1-3.889,2.034,16.077,16.077,0,0,1,2.665.434,5.116,5.116,0,0,1,1.81.875,4.1,4.1,0,0,1,1.2,1.533,5.107,5.107,0,0,1,.441,2.184,6.866,6.866,0,0,1-.3,1.974,5.839,5.839,0,0,1-1.1,1.989,7.633,7.633,0,0,1-1.937,1.69,8.556,8.556,0,0,1-2.326,1.017,11.793,11.793,0,0,1-2.955.314q-.359,0-2.154-.075-1.989-.045-2.153-.045-1.018,0-2.5.119l-.119-.119v-.494l.119-.149a4.256,4.256,0,0,0,1-.539A11.73,11.73,0,0,0,73.6,43.11q.083-2.5.082-3.814V33.806l-.015-3.395q0-1.107-.03-1.8a8.792,8.792,0,0,0-.082-.995.793.793,0,0,0-.174-.419.959.959,0,0,0-.337-.2,3.393,3.393,0,0,0-.74-.142Zm5.369,7.853q.748.058,1.691.058,3.1,0,4.307-1.107a3.9,3.9,0,0,0,1.211-3.036,3.69,3.69,0,0,0-.463-1.907,2.958,2.958,0,0,0-1.458-1.2,7.127,7.127,0,0,0-2.7-.418,11.977,11.977,0,0,0-2.453.224q-.135,1.346-.135,4.7Zm.03,10.9a10.366,10.366,0,0,0,2.363.269,6.816,6.816,0,0,0,3.35-.688,4.23,4.23,0,0,0,1.787-1.907,6.135,6.135,0,0,0,.576-2.655,4.823,4.823,0,0,0-1.217-3.448q-1.217-1.293-5.272-1.294-.674,0-1.616.058v5.1Z" transform="translate(-58.333 -10.84)" fill="#fff"/>
        <path id="Path_111" data-name="Path 111" d="M79.4,72.092l-.031-.01-.017-.142.017-.017a4.366,4.366,0,0,0,.439-.161c.177-.074.3-.131.38-.17l.045.017q-.028.76-.028.912v.644q0,.237.005.446a1.763,1.763,0,0,0,.016.247.116.116,0,0,0,.035.058.139.139,0,0,0,.07.027c.03,0,.12.01.269.019l.012.014v.078l-.012.014q-.38-.014-.536-.014c-.077,0-.271,0-.579.014l-.012-.014v-.078l.014-.014q.26-.019.3-.028a.111.111,0,0,0,.058-.031.177.177,0,0,0,.032-.082,3.231,3.231,0,0,0,.02-.359c.005-.2.008-.3.008-.305V71.926c0-.029-.012-.043-.031-.043l-.019,0q-.012,0-.076.031l-.174.076c-.071.031-.139.064-.2.1" transform="translate(-61.828 -30.115)" fill="#fff"/>
        <path id="Path_112" data-name="Path 112" d="M82.484,72.844a.863.863,0,0,1-.293-.232.521.521,0,0,1-.1-.322.611.611,0,0,1,.2-.455.731.731,0,0,1,.534-.19.852.852,0,0,1,.318.058.487.487,0,0,1,.226.179.466.466,0,0,1,.08.264.515.515,0,0,1-.094.29,1.046,1.046,0,0,1-.331.284v.016a2.366,2.366,0,0,1,.3.165.52.52,0,0,1,.16.183.552.552,0,0,1,.063.266.736.736,0,0,1-.119.4.777.777,0,0,1-.313.29.874.874,0,0,1-.4.1.741.741,0,0,1-.5-.17.566.566,0,0,1-.2-.452.6.6,0,0,1,.136-.395.927.927,0,0,1,.335-.258Zm.14.063a.773.773,0,0,0-.284.261.631.631,0,0,0-.079.317.533.533,0,0,0,.138.389.481.481,0,0,0,.357.141.532.532,0,0,0,.271-.07.438.438,0,0,0,.181-.19.579.579,0,0,0,.058-.262.386.386,0,0,0-.143-.319,2.334,2.334,0,0,0-.5-.267m.264-.229a.715.715,0,0,0,.251-.232.5.5,0,0,0,.066-.252.43.43,0,0,0-.116-.316.411.411,0,0,0-.307-.116.453.453,0,0,0-.3.1.358.358,0,0,0-.122.29.392.392,0,0,0,.079.243,1.455,1.455,0,0,0,.452.282" transform="translate(-62.946 -30.138)" fill="#fff"/>
        <path id="Path_113" data-name="Path 113" d="M85.962,72.844a.862.862,0,0,1-.293-.232.521.521,0,0,1-.1-.322.611.611,0,0,1,.2-.455.731.731,0,0,1,.534-.19.852.852,0,0,1,.318.058.487.487,0,0,1,.226.179.466.466,0,0,1,.08.264.515.515,0,0,1-.094.29,1.046,1.046,0,0,1-.331.284v.016a2.366,2.366,0,0,1,.3.165.52.52,0,0,1,.16.183.551.551,0,0,1,.063.266.736.736,0,0,1-.119.4.777.777,0,0,1-.313.29.874.874,0,0,1-.4.1.741.741,0,0,1-.5-.17.566.566,0,0,1-.2-.452.6.6,0,0,1,.136-.395.927.927,0,0,1,.335-.258Zm.14.063a.773.773,0,0,0-.284.261.631.631,0,0,0-.079.317.533.533,0,0,0,.138.389.481.481,0,0,0,.357.141.532.532,0,0,0,.271-.07.438.438,0,0,0,.181-.19.579.579,0,0,0,.058-.262.386.386,0,0,0-.143-.319,2.334,2.334,0,0,0-.5-.267m.264-.229a.715.715,0,0,0,.251-.232.5.5,0,0,0,.066-.252.43.43,0,0,0-.116-.316.411.411,0,0,0-.307-.116.453.453,0,0,0-.3.1.358.358,0,0,0-.122.29.392.392,0,0,0,.079.243,1.455,1.455,0,0,0,.452.282" transform="translate(-64.409 -30.138)" fill="#fff"/>
        <path id="Path_114" data-name="Path 114" d="M89,73a4.452,4.452,0,0,1,.031-.556,1.217,1.217,0,0,1,.138-.44.756.756,0,0,1,.267-.29.7.7,0,0,1,.365-.1.707.707,0,0,1,.406.12.666.666,0,0,1,.253.367,2.366,2.366,0,0,1,.077.674,1.917,1.917,0,0,1-.213,1.021.7.7,0,0,1-.922.246.648.648,0,0,1-.238-.236,1.049,1.049,0,0,1-.13-.364A2.579,2.579,0,0,1,88.995,73m.3-.1a3.41,3.41,0,0,0,.049.6.746.746,0,0,0,.165.39.37.37,0,0,0,.275.116.342.342,0,0,0,.257-.105.7.7,0,0,0,.151-.363,3.557,3.557,0,0,0,.048-.637,2.554,2.554,0,0,0-.112-.877.386.386,0,0,0-.373-.284.368.368,0,0,0-.343.22,2.375,2.375,0,0,0-.116.936" transform="translate(-65.883 -30.128)" fill="#fff"/>
        <path id="Path_115" data-name="Path 115" d="M60.824,10.5c.058-.069.074-.08.089-.074s.02.021.022.107c0,.105.03,1.248.058,1.674.016.249.078.314.127.348a.392.392,0,0,0,.1.05c.016.005.025.011.021.023s-.03.012-.058,0-.228-.077-.406-.144c-.049-.02-.076-.03-.072-.045s.013-.012.024-.01.041-.016.039-.058c-.009-.228-.017-.455-.024-.682a.023.023,0,0,0-.017-.023q-.271-.1-.542-.2a.027.027,0,0,0-.032.01c-.1.124-.209.247-.314.37a.528.528,0,0,0-.1.148c-.019.048.027.09.071.107l.025.01c.018.006.024.014.02.024s-.023.014-.046.005c-.061-.023-.169-.072-.2-.083s-.171-.058-.29-.1c-.034-.013-.047-.024-.041-.038s.016-.01.029-.005.054.018.075.024c.123.031.21-.041.3-.143q.58-.637,1.133-1.287m-.1,1.064c.013,0,.015,0,.016-.013v-.741c0-.041-.012-.045-.037-.013q-.232.289-.463.572c-.01.01-.006.017,0,.02q.24.09.48.174" transform="translate(-53.384 -4.385)" fill="#fff"/>
        <path id="Path_116" data-name="Path 116" d="M63.661,11.975c.125-.383.148-.451.169-.531s.015-.131-.058-.174a.511.511,0,0,0-.082-.035c-.01,0-.019-.012-.015-.021s.019-.016.046-.007c.111.037.265.1.278.1.03.009.188.052.337.1a1.435,1.435,0,0,1,.917.582.922.922,0,0,1,.067.7,1.02,1.02,0,0,1-.478.622,1.081,1.081,0,0,1-.874.05c-.112-.035-.248-.085-.357-.128l-.21-.084-.1-.031c-.056-.016-.113-.032-.152-.045s-.04-.019-.035-.033.01-.014.026-.009a.381.381,0,0,0,.081.017c.058.007.086-.043.119-.111.046-.1.11-.29.187-.528.048-.143.094-.29.142-.432m.126.334c-.084.26-.154.487-.166.535a.541.541,0,0,0-.032.2c.019.058.1.142.41.237a.922.922,0,0,0,.688-.046.869.869,0,0,0,.378-.532.921.921,0,0,0-.062-.7,1.113,1.113,0,0,0-.733-.528.682.682,0,0,0-.167-.033.046.046,0,0,0-.046.039c-.03.083-.11.333-.171.521-.032.1-.065.2-.1.3" transform="translate(-54.994 -4.712)" fill="#fff"/>
        <path id="Path_117" data-name="Path 117" d="M69.876,14.52c.232-.3.766-1.109.859-1.28a.408.408,0,0,0,.043-.091.063.063,0,0,0-.021-.065.317.317,0,0,0-.094-.031c-.015,0-.027-.009-.024-.021s.019-.017.058-.009c.1.021.217.053.247.058.015,0,.126.017.2.032.028.006.042.014.039.027s-.013.016-.034.012a.24.24,0,0,0-.128.006c-.038.016-.085.052-.189.209-.042.065-.232.342-.433.624-.238.335-.417.579-.505.691-.108.135-.127.174-.154.167s-.037-.046-.058-.178q-.146-.845-.269-1.689c-.021-.154-.052-.191-.134-.238a.409.409,0,0,0-.093-.034c-.015,0-.018-.012-.016-.023s.03-.011.07,0c.12.03.262.073.293.08s.14.026.236.049c.046.01.067.021.064.034s-.012.016-.03.012a.317.317,0,0,0-.1-.01.052.052,0,0,0-.045.043.978.978,0,0,0,.019.225q.091.7.2,1.4" transform="translate(-57.543 -5.333)" fill="#fff"/>
        <path id="Path_118" data-name="Path 118" d="M73.028,14.8c-.045.244-.082.445-.087.554-.006.075,0,.133.078.158.036.012.094.027.116.032s.02.01.019.018-.017.018-.046.013c-.147-.025-.313-.063-.327-.066s-.183-.027-.262-.042c-.03-.005-.042-.013-.039-.028s.008-.014.024-.012a.429.429,0,0,0,.082,0c.058,0,.079-.053.1-.125.034-.1.071-.3.116-.547.028-.149.058-.3.084-.447.075-.4.088-.467.1-.549s-.006-.135-.058-.158a.3.3,0,0,0-.077-.025.017.017,0,0,1-.017-.019c0-.01.016-.018.045-.013.084.016.243.054.255.058s.174.024.251.038c.028,0,.04.012.037.027s-.013.013-.023.011a.607.607,0,0,0-.065,0c-.071,0-.1.039-.121.127s-.033.152-.105.547l-.082.447" transform="translate(-58.936 -5.698)" fill="#fff"/>
        <path id="Path_119" data-name="Path 119" d="M75.544,15.16c-.035.245-.064.447-.067.556,0,.075.005.134.084.155.039.011.079.02.119.027.016,0,.02.01.019.018s-.016.019-.046.014c-.148-.02-.315-.052-.328-.054s-.184-.019-.264-.031c-.029,0-.042-.012-.039-.027s.008-.014.024-.012a.386.386,0,0,0,.082,0c.058,0,.077-.058.1-.129.03-.105.058-.307.1-.552l.162-1.08-.38-.053c-.159-.023-.224-.015-.275.039a.491.491,0,0,0-.058.072c-.011.019-.02.023-.03.021s-.012-.009-.009-.025.092-.236.1-.255.024-.046.034-.044a.488.488,0,0,0,.108.049c.072.02.169.04.2.045q.48.075.96.138a1.026,1.026,0,0,0,.184.011c.039,0,.063-.005.074,0s.011.017.009.032c-.009.077-.039.253-.043.281s-.012.032-.022.031-.017-.01-.015-.046V14.31c0-.078-.053-.144-.3-.182l-.323-.05q-.078.541-.156,1.081" transform="translate(-59.883 -5.806)" fill="#fff"/>
        <path id="Path_120" data-name="Path 120" d="M78.6,14.5c.039-.082.051-.1.067-.094s.024.015.048.1c.026.1.337,1.2.471,1.6.077.237.152.284.207.3a.4.4,0,0,0,.107.024c.016,0,.027,0,.026.017s-.026.019-.058.016-.238-.018-.423-.039c-.051-.007-.081-.01-.079-.025s.009-.015.02-.016.035-.025.022-.068q-.1-.327-.191-.654a.024.024,0,0,0-.023-.018c-.189-.017-.379-.036-.569-.058a.028.028,0,0,0-.028.017c-.07.146-.139.29-.21.437a.521.521,0,0,0-.058.168c-.006.051.048.081.094.086h.027c.019,0,.027.008.025.018s-.019.019-.043.016c-.065-.007-.18-.028-.209-.031s-.178-.012-.3-.028c-.035,0-.05-.011-.048-.027s.012-.014.025-.012.058,0,.079,0c.125,0,.191-.092.254-.214q.4-.762.768-1.53m.171,1.054c.013,0,.014-.006.012-.017q-.093-.359-.181-.718c-.009-.04-.022-.041-.039,0q-.149.335-.3.67c-.006.012,0,.018.006.019.169.018.337.035.5.05" transform="translate(-61.034 -6.059)" fill="#fff"/>
        <path id="Path_121" data-name="Path 121" d="M83.373,16.337c.009.093.024.238.14.276a.607.607,0,0,0,.174.025c.013,0,.021,0,.021.013s-.024.023-.058.023c-.058,0-.352-.008-.452-.018-.062-.007-.075-.015-.075-.028s.006-.015.019-.017.017-.046.013-.093q-.048-.671-.092-1.342h-.008q-.339.663-.7,1.319c-.061.111-.071.134-.1.133s-.031-.027-.078-.122c-.065-.13-.271-.587-.282-.614-.023-.048-.282-.683-.3-.753h-.01q-.09.594-.184,1.188c-.006.041-.009.087-.012.132a.083.083,0,0,0,.065.084.5.5,0,0,0,.1.019c.011,0,.021.006.021.014s-.017.022-.05.02c-.1-.006-.232-.023-.251-.024s-.154,0-.227-.008c-.027,0-.046-.009-.045-.027s.014-.012.028-.01a.385.385,0,0,0,.082,0c.09-.009.1-.109.123-.206q.156-.833.3-1.667c0-.028.016-.046.031-.045s.025.012.036.041q.343.835.717,1.664.431-.793.832-1.594c.01-.023.021-.041.039-.04s.025.021.03.07q.068.8.141,1.591" transform="translate(-62.523 -6.146)" fill="#fff"/>
        <path id="Path_122" data-name="Path 122" d="M88.107,15.522c-.009-.4-.011-.475-.018-.557s-.03-.129-.116-.144a.5.5,0,0,0-.088-.006c-.01,0-.021,0-.021-.015s.012-.021.041-.021h.29c.058,0,.207-.014.326-.018a.646.646,0,0,1,.488.127.447.447,0,0,1,.144.3.6.6,0,0,1-.559.64.584.584,0,0,1-.064,0,.483.483,0,0,1-.058,0c-.013,0-.029,0-.03-.017s.015-.024.071-.025a.432.432,0,0,0,.44-.424v-.015a.545.545,0,0,0-.163-.391.453.453,0,0,0-.36-.116.3.3,0,0,0-.111.019c-.015.005-.02.024-.019.049q.016.53.03,1.061c.007.247.013.451.03.559.01.075.028.131.11.139.038,0,.1.007.122.006s.021.008.022.015-.013.021-.043.022c-.149.005-.32,0-.333,0s-.179.013-.26.014c-.03,0-.043,0-.043-.02s0-.015.021-.016a.475.475,0,0,0,.081-.012c.054-.011.067-.068.076-.144.01-.108.006-.312,0-.56l-.01-.454" transform="translate(-65.408 -6.205)" fill="#fff"/>
        <path id="Path_123" data-name="Path 123" d="M91.294,14.639c.024-.087.034-.1.049-.1s.027.01.064.088c.043.1.542,1.124.745,1.5.116.22.2.253.258.263a.365.365,0,0,0,.109,0c.016,0,.027,0,.029.013s-.023.023-.052.026-.238.024-.425.035c-.052,0-.082,0-.083-.011s.006-.016.017-.02.03-.031.01-.071q-.154-.305-.3-.611a.024.024,0,0,0-.025-.013q-.285.023-.571.043a.028.028,0,0,0-.025.023c-.043.155-.087.311-.131.466a.538.538,0,0,0-.027.174c0,.052.061.071.107.068h.027c.019,0,.027,0,.028.013s-.015.022-.039.023c-.065,0-.181,0-.211.006s-.178.019-.305.025c-.035,0-.052,0-.053-.018s.01-.016.024-.017.058-.006.078-.009c.123-.023.174-.124.213-.255q.257-.819.492-1.641m.352,1.008c.013,0,.013-.009.009-.019-.1-.224-.2-.45-.3-.675-.016-.038-.029-.036-.039,0q-.089.356-.181.712c0,.013,0,.019.009.017.169-.012.338-.024.506-.038" transform="translate(-66.511 -6.115)" fill="#fff"/>
        <path id="Path_124" data-name="Path 124" d="M94.132,15.086c-.043-.4-.051-.472-.065-.554s-.04-.125-.127-.134a.566.566,0,0,0-.089,0c-.01,0-.021,0-.022-.013s.01-.022.039-.025c.116-.012.279-.022.293-.024.028,0,.223-.032.3-.043a.819.819,0,0,1,.486.054.455.455,0,0,1,.225.324.784.784,0,0,1-.24.633q.3.305.637.579a.56.56,0,0,0,.354.136.726.726,0,0,0,.106-.008c.013,0,.025,0,.027.012s-.013.023-.062.03l-.191.028a.554.554,0,0,1-.295-.008,1.3,1.3,0,0,1-.412-.327c-.13-.126-.276-.282-.337-.342a.045.045,0,0,0-.036-.012l-.326.034c-.013,0-.017.01-.016.023s0,.041.006.058c.028.246.05.449.076.556.016.073.039.128.121.129a1.087,1.087,0,0,0,.123,0c.016,0,.022.005.023.013s-.011.022-.041.025c-.149.018-.319.03-.333.031s-.174.027-.253.036c-.03,0-.043,0-.045-.017s0-.016.02-.017a.369.369,0,0,0,.079-.019c.053-.016.058-.074.064-.149,0-.109-.02-.312-.046-.558l-.049-.452m.235.2a.031.031,0,0,0,.022.028.734.734,0,0,0,.282.009.351.351,0,0,0,.192-.073.464.464,0,0,0,.111-.415c-.042-.321-.237-.49-.513-.457a.772.772,0,0,0-.174.036.03.03,0,0,0-.017.032q.048.42.1.839" transform="translate(-67.917 -6.005)" fill="#fff"/>
        <path id="Path_125" data-name="Path 125" d="M98.009,13.83c.017-.089.024-.107.039-.109s.028.008.072.082c.052.091.645,1.068.884,1.422.137.208.223.232.282.238a.37.37,0,0,0,.11-.006c.016,0,.027,0,.03.01s-.02.025-.049.031-.236.046-.422.075c-.052.007-.081.013-.084,0s.005-.017.016-.021.027-.034,0-.072q-.181-.289-.359-.579a.023.023,0,0,0-.026-.011c-.189.034-.378.065-.567.1a.027.027,0,0,0-.023.024c-.029.159-.058.318-.088.477a.518.518,0,0,0-.01.177c.008.051.068.065.116.058l.027,0c.019,0,.027,0,.029.011s-.013.023-.037.027c-.064.01-.181.021-.211.025s-.174.035-.3.054c-.035.005-.052,0-.054-.013s.009-.017.022-.019.058-.011.078-.017c.121-.034.16-.14.189-.275q.183-.839.34-1.68m.446.97c.013,0,.012-.01.008-.02q-.185-.321-.367-.644c-.019-.036-.032-.034-.039.006q-.058.363-.116.727c0,.013,0,.017.011.016l.5-.086" transform="translate(-69.411 -5.772)" fill="#fff"/>
        <path id="Path_126" data-name="Path 126" d="M103.2,14.167c.033.087.087.223.21.228a.634.634,0,0,0,.178-.022c.013,0,.022,0,.024.006s-.018.029-.05.037c-.058.016-.348.087-.446.1-.063.01-.078.006-.081-.006s0-.017.014-.023,0-.049-.012-.093q-.224-.634-.446-1.269h-.008q-.155.73-.331,1.459c-.031.124-.034.148-.058.154s-.038-.018-.109-.1c-.1-.107-.42-.493-.438-.516-.035-.04-.455-.583-.5-.646h-.01q.07.6.137,1.2c.006.041.015.086.024.13a.083.083,0,0,0,.086.064.519.519,0,0,0,.1-.009c.011,0,.023,0,.024.008s-.012.026-.043.033c-.1.021-.229.039-.25.043s-.151.039-.223.053c-.027.005-.047,0-.05-.014s.011-.015.024-.018a.412.412,0,0,0,.079-.024c.085-.032.074-.133.065-.232q-.07-.844-.148-1.688c0-.028,0-.048.019-.051s.027,0,.046.03q.556.713,1.141,1.412.209-.88.387-1.759c0-.025.01-.045.028-.05s.03.014.047.058q.278.749.561,1.5" transform="translate(-70.913 -5.304)" fill="#fff"/>
        <path id="Path_127" data-name="Path 127" d="M105.411,12.63c-.106-.389-.125-.458-.152-.536s-.058-.116-.147-.112a.567.567,0,0,0-.089.016c-.01,0-.021,0-.024-.009s.007-.024.035-.031c.116-.031.27-.066.29-.072s.174-.058.248-.078c.028-.008.042-.006.046.009s-.006.017-.016.02a.466.466,0,0,0-.061.025c-.065.03-.074.079-.054.168s.036.151.145.539q.048.174.1.348c.1.358.226.488.368.558a.554.554,0,0,0,.437.021.584.584,0,0,0,.359-.3.958.958,0,0,0-.035-.651l-.1-.308c-.119-.385-.14-.454-.17-.531s-.063-.116-.151-.107a.507.507,0,0,0-.088.019c-.01,0-.021,0-.024-.009s.006-.024.034-.032c.116-.035.253-.07.268-.075s.133-.05.209-.074c.027-.009.041-.008.046.006s-.005.018-.016.021a.438.438,0,0,0-.058.027c-.063.036-.071.082-.049.17s.041.149.162.534c.027.088.058.174.082.264a.961.961,0,0,1-.01.811.827.827,0,0,1-.487.348.86.86,0,0,1-.593-.02.818.818,0,0,1-.406-.591l-.1-.364" transform="translate(-72.616 -4.802)" fill="#fff"/>
        <path id="Path_128" data-name="Path 128" d="M109.958,12.68c-.042,0-.048-.014-.07-.08-.041-.122-.063-.224-.074-.264s-.005-.042.008-.046.021,0,.027.021a.476.476,0,0,0,.038.088.37.37,0,0,0,.469.116.356.356,0,0,0,.264-.429.215.215,0,0,0-.007-.026c-.058-.168-.169-.238-.449-.334l-.147-.05c-.343-.119-.454-.251-.51-.418a.484.484,0,0,1,.319-.606l.049-.012a1.073,1.073,0,0,1,.24-.058.41.41,0,0,0,.091-.019c.02-.007.027,0,.031.008s.023.1.082.261c.014.039.016.058,0,.062s-.022-.006-.031-.024a.441.441,0,0,0-.076-.11c-.024-.021-.128-.1-.357-.018a.3.3,0,0,0-.218.363c0,.009.005.017.008.026.048.139.143.206.45.3l.09.028c.379.121.506.244.576.439a.522.522,0,0,1-.075.483.751.751,0,0,1-.358.24.875.875,0,0,1-.372.053" transform="translate(-74.503 -4.442)" fill="#fff"/>
      </g>
      <path id="Path_129" data-name="Path 129" d="M8.361,109.556a3.051,3.051,0,0,1-1.732,2.772,4.425,4.425,0,0,1-2.2.485c-.285,0-.521,0-.706-.006l-1.7-.036q-.914,0-1.411.042l-.071-.071v-.2l.036-.086a2.459,2.459,0,0,0,.57-.421,3.658,3.658,0,0,0,.079-.947l.021-1.6v-3.614a15.881,15.881,0,0,0-.093-2.21.311.311,0,0,0-.242-.263,7.953,7.953,0,0,0-.834-.071L0,103.262v-.485l.071-.064q.635.043,2.182.043.983,0,1.775-.036.627-.028,1.062-.029,1.989,0,2.609.906a1.891,1.891,0,0,1,.328,1.1,2.137,2.137,0,0,1-.79,1.69,2.77,2.77,0,0,1-.784.477,8.016,8.016,0,0,1-1.027.307q2.938.129,2.936,2.388m-2.487-4.513q0-1.575-1.64-1.574a6.232,6.232,0,0,0-.919.056q-.028.749-.029,1.383v1.967c.109.009.328.014.656.014a1.7,1.7,0,0,0,1.7-.827,2.288,2.288,0,0,0,.235-1.02m.306,4.733q0-2.139-2.245-2.139-.285,0-.648.022v3.3c0,.357.01.705.029,1.048a5.047,5.047,0,0,0,.819.051,1.928,1.928,0,0,0,1.541-.628,2.482,2.482,0,0,0,.505-1.654" transform="translate(54.084 -89.406)" fill="#0f213f"/>
      <path id="Path_130" data-name="Path 130" d="M18.647,110.393a15.913,15.913,0,0,0-.156,2.352l-.071.071-5.183-.043q-1.3,0-1.832.043l-.071-.071v-.2l.036-.086a2.5,2.5,0,0,0,.57-.42,3.779,3.779,0,0,0,.079-.948l.022-1.6V105.88a15.961,15.961,0,0,0-.094-2.209.309.309,0,0,0-.242-.263,7.658,7.658,0,0,0-.834-.071l-.071-.071v-.485l.071-.065q.719.044,2.224.043,1.341,0,5.1-.043l.079.058-.092.791c-.029.252-.05.465-.065.64l-.049.664-.071.078h-.413l-.071-.071a2.921,2.921,0,0,0-.114-1.1,1.641,1.641,0,0,0-.767-.157c-.458-.038-.862-.056-1.207-.056q-.62,0-1.256.049-.078.749-.078,2.075v1.475c.376.024.68.036.913.036l.933-.007q.656-.007.741-.107a2.254,2.254,0,0,0,.15-.962l.071-.071h.441l.071.071q-.028.8-.029,1.462,0,.719.029,1.574l-.071.064h-.477l-.071-.071a2.267,2.267,0,0,0-.114-.973q-.114-.154-.691-.2c-.29-.023-.6-.036-.926-.036-.347,0-.67.013-.97.036v2.175q0,.934.036,1.81h.97a11.059,11.059,0,0,0,2.552-.164.232.232,0,0,0,.114-.078,1.285,1.285,0,0,0,.135-.428l.171-.884.071-.079h.434Z" transform="translate(52.929 -89.409)" fill="#0f213f"/>
      <path id="Path_131" data-name="Path 131" d="M28.553,110.393a15.907,15.907,0,0,0-.157,2.352l-.071.071-5.183-.043q-1.3,0-1.831.043l-.071-.071v-.2l.036-.086a2.5,2.5,0,0,0,.57-.42,3.714,3.714,0,0,0,.079-.948l.021-1.6V105.88a16.014,16.014,0,0,0-.093-2.209.31.31,0,0,0-.242-.263,7.686,7.686,0,0,0-.834-.071l-.071-.071v-.485l.071-.065q.734.044,2.152.043,1.468,0,2.231-.043l.071.065v.491l-.071.064a7.629,7.629,0,0,0-.833.071.309.309,0,0,0-.243.263,16.066,16.066,0,0,0-.092,2.209v4.263c0,.622.011,1.226.036,1.81H25a11.054,11.054,0,0,0,2.552-.164.228.228,0,0,0,.114-.078,1.264,1.264,0,0,0,.135-.428l.172-.884.071-.079h.435Z" transform="translate(51.87 -89.409)" fill="#0f213f"/>
      <path id="Path_132" data-name="Path 132" d="M39.792,103.271l-.071.071a2.416,2.416,0,0,0-.638.118.839.839,0,0,0-.3.324,12.768,12.768,0,0,0-.613,1.34l-.506,1.2-.955,2.324q-1.234,2.994-1.661,4.213H33.969L30.7,104.932a5.708,5.708,0,0,0-.727-1.425,1.551,1.551,0,0,0-.87-.164l-.071-.078v-.471l.079-.079q.749.043,1.889.043,1.427,0,2.6-.043l.071.079v.478l-.065.071a2.42,2.42,0,0,0-.948.129.255.255,0,0,0-.121.241,7.307,7.307,0,0,0,.464,1.355l.336.848,1.8,4.455,1.583-3.97q.092-.228.427-1.148a8.52,8.52,0,0,0,.485-1.548c0-.156-.052-.251-.157-.285a5.627,5.627,0,0,0-.955-.079l-.071-.071v-.485l.079-.071q.805.043,1.675.043.62,0,1.518-.043l.079.079Z" transform="translate(50.981 -89.409)" fill="#0f213f"/>
      <path id="Path_133" data-name="Path 133" d="M49.7,110.393a15.9,15.9,0,0,0-.157,2.352l-.071.071-5.183-.043q-1.3,0-1.831.043l-.071-.071v-.2l.036-.086a2.5,2.5,0,0,0,.57-.42,3.78,3.78,0,0,0,.079-.948l.021-1.6V105.88A16.014,16.014,0,0,0,43,103.671a.311.311,0,0,0-.242-.263,7.686,7.686,0,0,0-.834-.071l-.071-.071v-.485l.071-.065q.719.044,2.224.043,1.34,0,5.1-.043l.079.058-.093.791q-.043.378-.064.64l-.049.664-.071.078h-.414l-.071-.071a2.9,2.9,0,0,0-.114-1.1,1.64,1.64,0,0,0-.766-.157c-.458-.038-.862-.056-1.208-.056q-.62,0-1.255.049-.078.749-.078,2.075v1.475q.563.036.912.036l.934-.007q.655-.007.741-.107a2.261,2.261,0,0,0,.149-.962l.071-.071h.442l.071.071q-.028.8-.029,1.462,0,.719.029,1.574l-.071.064h-.478l-.071-.071a2.267,2.267,0,0,0-.114-.973c-.076-.1-.307-.171-.691-.2-.29-.023-.6-.036-.927-.036-.347,0-.67.013-.969.036v2.175c0,.622.011,1.226.036,1.81h.969a11.054,11.054,0,0,0,2.552-.164.228.228,0,0,0,.114-.078,1.264,1.264,0,0,0,.135-.428l.172-.884.071-.079h.435Z" transform="translate(49.609 -89.409)" fill="#0f213f"/>
      <path id="Path_134" data-name="Path 134" d="M62.767,107.168a5.458,5.458,0,0,1-1.575,4.006,5.285,5.285,0,0,1-1.867,1.2,7.075,7.075,0,0,1-2.745.435l-2.516-.042q-1.027-.015-1.7.042l-.071-.071v-.2l.036-.086a2.459,2.459,0,0,0,.57-.421,3.7,3.7,0,0,0,.079-.947l.021-1.6v-3.614a16.03,16.03,0,0,0-.093-2.21.312.312,0,0,0-.242-.263,7.954,7.954,0,0,0-.834-.071l-.071-.071v-.485l.071-.064q.756.043,1.44.043,1.661,0,2.994-.043.662-.021,1.332-.021a7.549,7.549,0,0,1,2.844.421,3.624,3.624,0,0,1,1.7,1.454,4.894,4.894,0,0,1,.628,2.6m-2.189.342a4.39,4.39,0,0,0-.955-3.036,2.691,2.691,0,0,0-1.248-.784,7.217,7.217,0,0,0-1.989-.214,8.4,8.4,0,0,0-1.268.093q-.072.8-.071,3.863l.013,3.115a12.456,12.456,0,0,0,.058,1.383,8.191,8.191,0,0,0,1.282.1,5.033,5.033,0,0,0,2.238-.413,3.177,3.177,0,0,0,1.4-1.525,5.879,5.879,0,0,0,.535-2.581" transform="translate(48.55 -89.406)" fill="#0f213f"/>
      <path id="Path_135" data-name="Path 135" d="M73.194,110.393a15.916,15.916,0,0,0-.156,2.352l-.071.071-5.183-.043q-1.3,0-1.832.043l-.071-.071v-.2l.036-.086a2.5,2.5,0,0,0,.57-.42,3.779,3.779,0,0,0,.079-.948l.022-1.6V105.88a15.961,15.961,0,0,0-.094-2.209.309.309,0,0,0-.242-.263,7.657,7.657,0,0,0-.834-.071l-.071-.071v-.485l.071-.065q.719.044,2.224.043,1.341,0,5.1-.043l.079.058-.092.791c-.029.252-.05.465-.065.64l-.049.664-.071.078h-.414l-.071-.071a2.921,2.921,0,0,0-.114-1.1,1.641,1.641,0,0,0-.767-.157c-.458-.038-.862-.056-1.207-.056q-.62,0-1.256.049-.078.749-.078,2.075v1.475c.376.024.68.036.913.036l.933-.007q.656-.007.741-.107a2.255,2.255,0,0,0,.15-.962l.071-.071h.441l.071.071q-.028.8-.029,1.462,0,.719.029,1.574l-.071.064h-.477l-.071-.071a2.267,2.267,0,0,0-.114-.973q-.114-.154-.691-.2c-.29-.023-.6-.036-.926-.036-.347,0-.67.013-.97.036v2.175q0,.934.036,1.81h.97a11.059,11.059,0,0,0,2.552-.164.232.232,0,0,0,.114-.078,1.285,1.285,0,0,0,.135-.428l.171-.884.071-.079h.434Z" transform="translate(47.097 -89.409)" fill="#0f213f"/>
      <path id="Path_136" data-name="Path 136" d="M85.011,112.741l-.071.071-.271-.007c-.651-.023-1.057-.036-1.219-.036-.243,0-.627.014-1.155.043a2,2,0,0,0-.271-.571l-1.767-2.951-.792-1.2a1.986,1.986,0,0,0-.421-.435l.079-.242c.109,0,.19.007.243.007a2.283,2.283,0,0,0,1.1-.221,1.881,1.881,0,0,0,.67-.7,2.228,2.228,0,0,0,.306-1.19,1.62,1.62,0,0,0-.9-1.625,3.055,3.055,0,0,0-1.248-.2,4.036,4.036,0,0,0-.684.056q-.072.7-.071,2.381v3.729a16.089,16.089,0,0,0,.092,2.21.311.311,0,0,0,.243.263,7.913,7.913,0,0,0,.834.071l.071.071v.477l-.065.071q-.711-.043-2.2-.043-1.532,0-2.2.043l-.071-.064v-.484l.071-.071a7.942,7.942,0,0,0,.834-.071.31.31,0,0,0,.242-.263,15.875,15.875,0,0,0,.093-2.21v-3.771a15.867,15.867,0,0,0-.093-2.209.311.311,0,0,0-.242-.263,7.674,7.674,0,0,0-.834-.071l-.071-.071v-.485l.071-.064q.7.043,2.2.042.871,0,1.411-.021,1.077-.043,1.612-.043a5.446,5.446,0,0,1,1.81.221,1.691,1.691,0,0,1,1.04,1.013,2.394,2.394,0,0,1,.129.827A2.851,2.851,0,0,1,81.34,107.5q.355.6.755,1.211l1.1,1.69a7.744,7.744,0,0,0,1.29,1.7.828.828,0,0,0,.456.106l.071.071Z" transform="translate(46.038 -89.406)" fill="#0f213f"/>
      <path id="Path_137" data-name="Path 137" d="M94.769,110.393a15.915,15.915,0,0,0-.156,2.352l-.071.071-5.183-.043q-1.3,0-1.832.043l-.071-.071v-.2l.036-.086a2.5,2.5,0,0,0,.57-.42,3.781,3.781,0,0,0,.079-.948l.022-1.6V105.88a15.963,15.963,0,0,0-.094-2.209.309.309,0,0,0-.242-.263,7.658,7.658,0,0,0-.834-.071l-.071-.071v-.485l.071-.065q.719.044,2.224.043,1.341,0,5.1-.043l.079.058-.092.791c-.029.252-.05.465-.065.64l-.049.664-.071.078H93.7l-.071-.071a2.92,2.92,0,0,0-.114-1.1,1.641,1.641,0,0,0-.767-.157c-.458-.038-.862-.056-1.207-.056q-.62,0-1.256.049-.078.749-.078,2.075v1.475c.376.024.68.036.913.036l.933-.007q.656-.007.741-.107a2.254,2.254,0,0,0,.15-.962l.071-.071h.441l.071.071q-.028.8-.029,1.462,0,.719.029,1.574l-.071.064h-.477l-.071-.071a2.266,2.266,0,0,0-.114-.973q-.114-.154-.691-.2c-.29-.023-.6-.036-.926-.036-.347,0-.67.013-.97.036v2.175q0,.934.036,1.81h.97a11.059,11.059,0,0,0,2.552-.164.232.232,0,0,0,.114-.078,1.285,1.285,0,0,0,.135-.428l.171-.884.071-.079h.434Z" transform="translate(44.79 -89.409)" fill="#0f213f"/>
      <path id="Path_138" data-name="Path 138" d="M108.66,109.46a3.369,3.369,0,0,1-.671,2.074,3.494,3.494,0,0,1-1.533,1.177,5.476,5.476,0,0,1-2.074.356,6.775,6.775,0,0,1-2.937-.685l-.086-.156a10.373,10.373,0,0,0,.2-2.332l.071-.071h.456l.063.071v.164a8.536,8.536,0,0,0,.086,1.056,2.049,2.049,0,0,0,.92.783,3.2,3.2,0,0,0,1.44.343,2.033,2.033,0,0,0,1.953-.983,2.148,2.148,0,0,0,.278-1.048,1.355,1.355,0,0,0-.762-1.3,4.3,4.3,0,0,0-1.22-.32,6.376,6.376,0,0,1-2.5-.735,2.41,2.41,0,0,1-.906-2.075,2.954,2.954,0,0,1,.984-2.331,4.243,4.243,0,0,1,2.894-.913,5.841,5.841,0,0,1,2.694.535l.05.171a12.282,12.282,0,0,0-.206,2.039l-.079.072h-.449l-.071-.072a8.866,8.866,0,0,0-.071-1.112,1.676,1.676,0,0,0-.771-.57,3.149,3.149,0,0,0-1.219-.243,2.161,2.161,0,0,0-1.51.506,1.6,1.6,0,0,0-.521,1.232,1.333,1.333,0,0,0,.591,1.206,5.741,5.741,0,0,0,1.818.477c.1.015.378.063.834.143a4.086,4.086,0,0,1,.777.207,2.152,2.152,0,0,1,1.083.827,2.723,2.723,0,0,1,.392,1.511" transform="translate(43.247 -89.39)" fill="#0f213f"/>
      <path id="Path_139" data-name="Path 139" d="M120.556,111.506l-.328.726a6.862,6.862,0,0,1-3.365.827q-3.72,0-5.09-2.68a5.808,5.808,0,0,1-.634-2.687,4.753,4.753,0,0,1,1.553-3.728,6.247,6.247,0,0,1,4.342-1.433,9.524,9.524,0,0,1,3.414.635l.092.106a11.956,11.956,0,0,0-.3,2.3l-.063.071h-.422l-.071-.078a9.9,9.9,0,0,0-.079-1.2,3.26,3.26,0,0,0-2.573-1,3.46,3.46,0,0,0-2.716,1.1,4.3,4.3,0,0,0-.984,2.98,4.649,4.649,0,0,0,1.754,3.906,3.963,3.963,0,0,0,2.5.728,5.808,5.808,0,0,0,2.786-.735Z" transform="translate(42.201 -89.39)" fill="#0f213f"/>
      <path id="Path_140" data-name="Path 140" d="M133.953,112.744l-.071.071q-.706-.043-2.2-.043-1.526,0-2.2.043l-.071-.064v-.484l.079-.071a7.85,7.85,0,0,0,.833-.071.31.31,0,0,0,.243-.263,16.022,16.022,0,0,0,.093-2.21v-1.718q-.363-.035-2.31-.036-1.8,0-2.366.036v1.718a16.077,16.077,0,0,0,.092,2.21.311.311,0,0,0,.243.263,7.911,7.911,0,0,0,.834.071l.071.071v.477l-.065.071q-.711-.043-2.2-.043-1.533,0-2.2.043l-.071-.064v-.484l.071-.071a7.939,7.939,0,0,0,.834-.071.311.311,0,0,0,.242-.263,15.882,15.882,0,0,0,.093-2.21v-3.771a15.876,15.876,0,0,0-.093-2.209.311.311,0,0,0-.242-.263,7.677,7.677,0,0,0-.834-.071l-.071-.071v-.485l.071-.064q.685.043,2.2.042,1.547,0,2.2-.042l.065.064v.492l-.071.063a7.65,7.65,0,0,0-.834.071.312.312,0,0,0-.243.263,16.07,16.07,0,0,0-.092,2.209v1.177c.5.023,1.2.036,2.081.036q2.083,0,2.6-.036v-1.177a16.016,16.016,0,0,0-.093-2.209.311.311,0,0,0-.243-.263,7.592,7.592,0,0,0-.833-.071l-.079-.071v-.485l.071-.064q.691.043,2.2.042,1.554,0,2.2-.042l.071.064v.492l-.064.063a7.457,7.457,0,0,0-.841.071.309.309,0,0,0-.242.263,15.977,15.977,0,0,0-.094,2.209v3.771a15.984,15.984,0,0,0,.094,2.21.308.308,0,0,0,.242.263,7.879,7.879,0,0,0,.834.071l.071.071Z" transform="translate(40.965 -89.409)" fill="#0f213f"/>
      <path id="Path_141" data-name="Path 141" d="M147.382,107.486a5.5,5.5,0,0,1-1.533,4.127,5.575,5.575,0,0,1-4.07,1.455,5.215,5.215,0,0,1-3.829-1.373,5.121,5.121,0,0,1-1.39-3.818,4.84,4.84,0,0,1,2.616-4.747,6.477,6.477,0,0,1,2.93-.6,5.418,5.418,0,0,1,3.871,1.3,4.774,4.774,0,0,1,1.4,3.65m-2.2.371a5.735,5.735,0,0,0-.831-3.283,2.761,2.761,0,0,0-2.434-1.215,2.721,2.721,0,0,0-2.81,1.9,6.367,6.367,0,0,0-.356,2.188,6.437,6.437,0,0,0,.813,3.478,2.788,2.788,0,0,0,2.517,1.319,2.686,2.686,0,0,0,2.73-2,7.238,7.238,0,0,0,.371-2.388" transform="translate(39.483 -89.39)" fill="#0f213f"/>
      <path id="Path_142" data-name="Path 142" d="M161,107.486a5.5,5.5,0,0,1-1.533,4.127,5.575,5.575,0,0,1-4.07,1.455,5.215,5.215,0,0,1-3.829-1.373,5.121,5.121,0,0,1-1.39-3.818,4.84,4.84,0,0,1,2.616-4.747,6.476,6.476,0,0,1,2.93-.6,5.418,5.418,0,0,1,3.871,1.3,4.774,4.774,0,0,1,1.4,3.65m-2.2.371a5.735,5.735,0,0,0-.831-3.283,2.761,2.761,0,0,0-2.434-1.215,2.721,2.721,0,0,0-2.81,1.9,6.367,6.367,0,0,0-.356,2.188,6.436,6.436,0,0,0,.813,3.478,2.787,2.787,0,0,0,2.517,1.319,2.686,2.686,0,0,0,2.73-2,7.237,7.237,0,0,0,.371-2.388" transform="translate(38.027 -89.39)" fill="#0f213f"/>
      <path id="Path_143" data-name="Path 143" d="M171.4,110.393a15.9,15.9,0,0,0-.157,2.352l-.071.071-5.183-.043q-1.3,0-1.831.043l-.071-.071v-.2l.036-.086a2.5,2.5,0,0,0,.57-.42,3.709,3.709,0,0,0,.079-.948l.021-1.6V105.88a16.011,16.011,0,0,0-.093-2.209.311.311,0,0,0-.242-.263,7.686,7.686,0,0,0-.834-.071l-.071-.071v-.485l.071-.065q.734.044,2.152.043,1.468,0,2.231-.043l.071.065v.491l-.071.064a7.63,7.63,0,0,0-.833.071.309.309,0,0,0-.243.263,16.068,16.068,0,0,0-.092,2.209v4.263c0,.622.011,1.226.036,1.81h.969a11.054,11.054,0,0,0,2.552-.164.228.228,0,0,0,.114-.078,1.263,1.263,0,0,0,.135-.428l.172-.884.071-.079h.435Z" transform="translate(36.596 -89.409)" fill="#0f213f"/>
      <path id="Path_144" data-name="Path 144" d="M69.432,129.229l-.272.663a7.336,7.336,0,0,1-3.379.806,5.974,5.974,0,0,1-4.18-1.461,4.921,4.921,0,0,1-1.607-3.821,5.034,5.034,0,0,1,.8-2.84,4.974,4.974,0,0,1,2.118-1.818,7,7,0,0,1,2.954-.6,8.863,8.863,0,0,1,1.874.2,7.93,7.93,0,0,1,1.548.478l.049.071a9.127,9.127,0,0,0-.305,1.975l-.051.056h-.335l-.056-.056-.071-1.212a3.86,3.86,0,0,0-1.259-.645,5.087,5.087,0,0,0-1.535-.232,4.46,4.46,0,0,0-2.159.517,3.592,3.592,0,0,0-1.483,1.5,4.994,4.994,0,0,0-.527,2.4,4.913,4.913,0,0,0,.62,2.5,4.245,4.245,0,0,0,1.692,1.654,5.216,5.216,0,0,0,2.505.577,5.953,5.953,0,0,0,1.219-.121,4.631,4.631,0,0,0,.973-.3,4.4,4.4,0,0,0,.745-.435Z" transform="translate(-5.91 -91.274)" fill="#0f213f"/>
      <path id="Path_145" data-name="Path 145" d="M71.36,130.5l-.064-.057v-.371l.064-.056a3.04,3.04,0,0,0,.67-.055.568.568,0,0,0,.268-.185,5.8,5.8,0,0,0,.473-.909l.748-1.625,1.94-4.391q.548-1.29,1.09-2.581h.463l3.045,7.158.405.955c.12.271.255.565.41.884a2.758,2.758,0,0,0,.321.563.606.606,0,0,0,.221.131,2.362,2.362,0,0,0,.588.055l.057.056v.371L82,130.5q-.756-.064-1.361-.064-1.184.036-2.367.064l-.057-.057v-.371l.057-.056a5.72,5.72,0,0,0,1-.069.236.236,0,0,0,.2-.246,1.223,1.223,0,0,0-.1-.413l-.876-2.174H74.369l-.778,1.824a2.163,2.163,0,0,0-.206.721.278.278,0,0,0,.193.263,3.225,3.225,0,0,0,.969.094l.064.056v.371l-.056.057q-.92-.056-1.612-.057-.784,0-1.583.057m3.251-4h3.607l-1.79-4.3Z" transform="translate(-7.119 -91.286)" fill="#0f213f"/>
      <path id="Path_146" data-name="Path 146" d="M84.2,120.387l.891.029q.876.028,1.148.028.242,0,2.045-.056l.058.05v.356l-.058.05q-.492.013-.758.043a.917.917,0,0,0-.389.107.5.5,0,0,0-.16.367,6.334,6.334,0,0,0-.039.8l-.014,1.64v3.3l.007,1.39a10.071,10.071,0,0,0,.042,1.04.677.677,0,0,0,.1.314.535.535,0,0,0,.26.131,5.506,5.506,0,0,0,.948.082l.058.043v.356l-.058.057-1.254-.043c-.338-.01-.6-.014-.791-.014q-.221,0-2.039.057l-.056-.057V130.1l.056-.043a7.427,7.427,0,0,0,.884-.071.652.652,0,0,0,.3-.111.562.562,0,0,0,.121-.288,6.728,6.728,0,0,0,.054-.984l.006-1.5v-3.3l-.013-1.39q-.008-.813-.039-1.048a.665.665,0,0,0-.1-.314.518.518,0,0,0-.26-.128,6.121,6.121,0,0,0-.948-.079l-.056-.05v-.356Z" transform="translate(-8.492 -91.299)" fill="#0f213f"/>
      <path id="Path_147" data-name="Path 147" d="M89.575,120.435l.056-.05q1.3.058,2.032.057.805,0,2.174-.05c.338-.01.583-.013.735-.013a3.432,3.432,0,0,1,2.445.655,2.144,2.144,0,0,1,.641,1.553,2.442,2.442,0,0,1-.313,1.177,2.8,2.8,0,0,1-.927.987,4.6,4.6,0,0,1-1.689.616q.2.279.72.964l1.012,1.34q.492.663,1.056,1.4a4.481,4.481,0,0,0,.727.834.871.871,0,0,0,.281.117,2.182,2.182,0,0,0,.373.022l.058.056v.335l-.064.065a6.475,6.475,0,0,0-.813-.043c-.337,0-.706.013-1.1.043q-.492-.6-1.547-2.074-1.226-1.711-2.51-3.172l.071-.221c.247.014.439.021.578.021a2.9,2.9,0,0,0,1.932-.591,2.035,2.035,0,0,0,.7-1.64,1.678,1.678,0,0,0-.628-1.422,2.72,2.72,0,0,0-1.7-.481,4.731,4.731,0,0,0-1.411.206,14.366,14.366,0,0,0-.107,2.674v3.3l.007,1.391a10,10,0,0,0,.043,1.04.664.664,0,0,0,.1.313.536.536,0,0,0,.26.132,5.556,5.556,0,0,0,.948.081l.057.043v.357l-.057.056c-.024,0-.441-.013-1.255-.043q-.506-.013-.79-.013-.221,0-2.04.056l-.056-.056V130.1l.056-.043a7.213,7.213,0,0,0,.884-.071.656.656,0,0,0,.3-.111.578.578,0,0,0,.121-.288,6.774,6.774,0,0,0,.053-.984l.007-1.5v-3.3l-.014-1.39q-.008-.813-.039-1.048a.638.638,0,0,0-.1-.313.511.511,0,0,0-.26-.129,6.231,6.231,0,0,0-.948-.079l-.056-.05Z" transform="translate(-9.073 -91.299)" fill="#0f213f"/>
      <path id="Path_148" data-name="Path 148" d="M100.542,125.523a6.285,6.285,0,0,1,.307-2,4.617,4.617,0,0,1,1.044-1.715,5.046,5.046,0,0,1,1.778-1.219,6.112,6.112,0,0,1,2.352-.431,5.5,5.5,0,0,1,3.872,1.323,4.662,4.662,0,0,1,1.44,3.611,5.907,5.907,0,0,1-.706,2.893,4.942,4.942,0,0,1-2.022,2,6.088,6.088,0,0,1-2.955.713,5.734,5.734,0,0,1-2.138-.388,4.363,4.363,0,0,1-1.664-1.158,4.7,4.7,0,0,1-1-1.783,6.34,6.34,0,0,1-.311-1.847m1.482-.47a6.949,6.949,0,0,0,.281,1.872,4.931,4.931,0,0,0,.841,1.717,3.616,3.616,0,0,0,1.291,1.065,4.1,4.1,0,0,0,3.632-.157,3.172,3.172,0,0,0,1.311-1.572,6.084,6.084,0,0,0,.449-2.391,6.367,6.367,0,0,0-.513-2.6,3.439,3.439,0,0,0-1.462-1.69,4.239,4.239,0,0,0-2.1-.528,3.53,3.53,0,0,0-2.731,1.083,4.577,4.577,0,0,0-1,3.2" transform="translate(-10.246 -91.274)" fill="#0f213f"/>
    </g>
  </g>
</svg>
