<?xml version="1.0" encoding="UTF-8"?><svg id="Layer_2" xmlns="http://www.w3.org/2000/svg" viewBox="0 0 1656.07 2370.93"><defs><style>.cls-1{fill:#fff;}.cls-2{fill:#8eccdb;}</style></defs><g id="Layer_7"><path class="cls-2" d="m658.87,203.33L499.61,44.06c6.06-7.89,13.13-14.96,21.02-21.02l159.27,159.27c-6.06,7.89-13.13,14.96-21.02,21.02Zm-78.68,23.04l-103.62-103.62c4.6,55.11,48.51,99.03,103.62,103.62Zm28.64-1.2c11.21-1.9,21.86-5.43,31.69-10.35L488.12,62.41c-4.92,9.84-8.46,20.48-10.35,31.69l131.07,131.07ZM570.67,1.2c-11.21,1.9-21.86,5.43-31.69,10.35l152.41,152.41c4.92-9.84,8.46-20.48,10.35-31.69L570.67,1.2ZM599.32,0l103.62,103.62C698.34,48.51,654.43,4.6,599.32,0Z"/><path class="cls-1" d="m941.22,48.56v40.15l-137.66,137.66h-40.15l177.8-177.8Zm0,108.79v-40.15l-109.17,109.17h40.15l69.02-69.02Zm-226.37,69.02h20.07L941.22,20.07V0h-20.07l-206.3,206.3v20.07Zm0-88.71v40.15L892.66,0h-40.15l-137.66,137.66ZM755.38,0h-40.53v40.53L755.38,0Zm145.31,226.37h40.53v-40.53l-40.53,40.53Zm-185.84-157.35v40.15L824.02,0h-40.15l-69.02,69.02Z"/><path class="cls-1" d="m1239.98,0h40.15l137.66,137.66v40.15L1239.98,0Zm108.79,0h-40.15l109.17,109.17v-40.15L1348.77,0Zm69.02,226.37v-20.07L1211.49,0h-20.07v20.07l206.3,206.3h20.07Zm-88.71,0h40.15l-177.8-177.8v40.15l137.66,137.66Zm-137.66-40.53v40.53h40.53l-40.53-40.53Zm226.37-145.31V0h-40.53l40.53,40.53Zm-157.35,185.84h40.15l-109.17-109.17v40.15l69.02,69.02Z"/><path class="cls-2" d="m1429.7,0v90.55c75.01,0,135.82,60.81,135.82,135.82h90.55C1656.07,101.35,1554.72,0,1429.7,0Z"/><rect class="cls-1" x="1191.42" y="476.57" width="226.37" height="226.37" transform="translate(2609.21 1179.51) rotate(180)"/><path class="cls-1" d="m0,464.65h226.37v-226.37H0v226.37Zm187.6-187.6v148.84H38.77v-148.84h148.84Z"/><path class="cls-2" d="m464.65,464.65v-226.37h-226.37v226.37h226.37Zm-187.6-187.6h148.84v148.84h-148.84v-148.84Z"/><polygon class="cls-2" points="1417.79 464.65 1191.42 464.65 1191.42 238.28 1417.79 464.65"/><circle class="cls-1" cx="589.75" cy="351.47" r="113.18"/><path class="cls-1" d="m1135.44,441.61l-159.27-159.27c6.06-7.89,13.13-14.96,21.02-21.02l159.27,159.27c-6.06,7.89-13.13,14.96-21.02,21.02Zm-78.68,23.04l-103.62-103.62c4.6,55.11,48.51,99.03,103.62,103.62Zm28.64-1.2c11.21-1.9,21.86-5.43,31.69-10.35l-152.41-152.41c-4.92,9.84-8.46,20.48-10.35,31.69l131.07,131.07Zm-38.16-223.98c-11.21,1.9-21.86,5.43-31.69,10.35l152.41,152.41c4.92-9.84,8.46-20.48,10.35-31.69l-131.07-131.07Zm28.64-1.2l103.62,103.62c-4.6-55.11-48.51-99.03-103.62-103.62Z"/><path class="cls-2" d="m714.85,416.09v-40.15l137.66-137.66h40.15l-177.8,177.8Zm0-108.79v40.15l109.17-109.17h-40.15l-69.02,69.02Zm226.37-69.02h-20.07l-206.3,206.3v20.07h20.07l206.3-206.3v-20.07Zm0,88.71v-40.15l-177.8,177.8h40.15l137.66-137.66Zm-40.53,137.66h40.53v-40.53l-40.53,40.53Zm-145.31-226.37h-40.53v40.53l40.53-40.53Zm185.84,157.35v-40.15l-109.17,109.17h40.15l69.02-69.02Z"/><path class="cls-1" d="m1656.07,286.85v40.15l-137.66,137.66h-40.15l177.8-177.8Zm0,108.79v-40.15l-109.17,109.17h40.15l69.02-69.02Zm-226.37,69.02h20.07l206.3-206.3v-20.07h-20.07l-206.3,206.3v20.07Zm0-88.71v40.15l177.8-177.8h-40.15l-137.66,137.66Zm40.53-137.66h-40.53v40.53l40.53-40.53Zm145.31,226.37h40.53v-40.53l-40.53,40.53Zm-185.84-157.35v40.15l109.17-109.17h-40.15l-69.02,69.02Z"/><circle class="cls-2" cx="589.75" cy="589.75" r="113.18"/><path class="cls-1" d="m763.42,476.57h40.15s137.66,137.66,137.66,137.66v40.15l-177.8-177.8Zm108.79,0h-40.15l109.17,109.17v-40.15l-69.02-69.02Zm69.02,226.37v-20.07l-206.3-206.3h-20.07v20.07l206.3,206.3h20.07Zm-88.71,0h40.15l-177.8-177.8v40.15l137.66,137.66Zm-137.66-40.53v40.53h40.53l-40.53-40.53Zm226.37-145.31v-40.53h-40.53l40.53,40.53Zm-157.35,185.84h40.15l-109.17-109.17v40.15l69.02,69.02Z"/><path class="cls-2" d="m0,702.94h226.37v-226.37H0v226.37Zm187.6-187.6v148.84H38.77v-148.84h148.84Z"/><path class="cls-1" d="m238.28,476.57v226.37h226.37v-226.37h-226.37Zm187.6,187.6h-148.84v-148.84h148.84v148.84Z"/><polygon class="cls-2" points="953.14 476.57 953.14 521.84 1134.23 521.84 1134.23 702.94 1179.51 702.94 1179.51 476.57 953.14 476.57"/><polygon class="cls-2" points="1656.07 476.57 1656.07 702.94 1429.7 702.94 1656.07 476.57"/><polygon class="cls-1" points="702.94 714.85 702.94 941.22 476.57 941.22 702.94 714.85"/><circle class="cls-1" cx="113.18" cy="828.04" r="113.18"/><path class="cls-2" d="m238.28,714.85v226.37h226.37v-226.37h-226.37Zm187.6,187.6h-148.84v-148.84h148.84v148.84Z"/><path class="cls-1" d="m953.14,714.85v226.37h226.37v-226.37h-226.37Zm187.6,187.6h-148.84v-148.84h148.84v148.84Z"/><path class="cls-2" d="m226.37,1179.51v-90.55c-75.01,0-135.82-60.81-135.82-135.82H0c0,125.02,101.35,226.37,226.37,226.37Z"/><path class="cls-1" d="m226.37,1191.42h-90.55c0,75.01-60.81,135.82-135.82,135.82v90.55c125.02,0,226.37-101.35,226.37-226.37Z"/><path class="cls-1" d="m113.18,1894.36c-62.51,0-113.18-50.67-113.18-113.18s50.67-113.19,113.18-113.19,113.18,50.67,113.18,113.18-50.67,113.18-113.18,113.19Z"/><path class="cls-2" d="m1417.79,1667.99h-226.37v226.37h226.37v-226.37Zm-187.6,187.6v-148.84h148.84s0,148.84,0,148.84h-148.84Z"/><path class="cls-1" d="m1633.03,1712.05l-159.27,159.27c-7.89-6.06-14.96-13.13-21.02-21.02l159.27-159.27c7.89,6.06,14.96,13.13,21.02,21.02Zm23.04,78.68l-103.62,103.62c55.11-4.6,99.03-48.51,103.62-103.62Zm-1.2-28.64c-1.9-11.21-5.43-21.86-10.35-31.69l-152.41,152.41c9.84,4.92,20.48,8.46,31.69,10.35l131.07-131.07Zm-223.98,38.16c1.9,11.21,5.43,21.86,10.35,31.69l152.41-152.41c-9.84-4.92-20.48-8.46-31.69-10.35l-131.07,131.07Zm-1.2-28.64l103.62-103.62c-55.11,4.6-99.03,48.51-103.62,103.62Z"/><rect class="cls-1" x="953.14" y="2144.56" width="226.37" height="226.37" transform="translate(-1191.42 3324.06) rotate(-90)"/><path class="cls-1" d="m1607.51,2370.93h-40.15l-137.66-137.66v-40.15l177.8,177.8Zm-108.79,0h40.15l-109.17-109.17v40.15l69.02,69.02Zm-69.02-226.37v20.07l206.3,206.3h20.07v-20.07s-206.3-206.3-206.3-206.3h-20.07Zm88.71,0h-40.15l177.8,177.8v-40.15l-137.66-137.66Zm137.66,40.53v-40.53h-40.53l40.53,40.53Zm-226.37,145.31v40.53h40.53l-40.53-40.53Zm157.35-185.84h-40.15l109.17,109.17v-40.15l-69.02-69.02Z"/><path class="cls-2" d="m1394.75,758.91l-159.27,159.27c-7.89-6.06-14.96-13.13-21.02-21.02l159.27-159.27c7.89,6.06,14.96,13.13,21.02,21.02Zm23.04,78.68l-103.62,103.62c55.11-4.6,99.03-48.51,103.62-103.62Zm-1.2-28.64c-1.9-11.21-5.43-21.86-10.35-31.69l-152.41,152.41c9.84,4.92,20.48,8.46,31.69,10.35l131.07-131.07Zm-223.98,38.16c1.9,11.21,5.43,21.86,10.35,31.69l152.41-152.41c-9.84-4.92-20.48-8.46-31.69-10.35l-131.07,131.07Zm-1.2-28.64l103.62-103.62c-55.11,4.6-99.03,48.51-103.62,103.62Z"/><circle class="cls-1" cx="1542.89" cy="828.04" r="113.18"/><circle class="cls-1" cx="351.47" cy="1066.32" r="113.18"/><rect class="cls-2" x="476.57" y="953.14" width="226.37" height="226.37" transform="translate(1656.07 476.57) rotate(90)"/><path class="cls-1" d="m714.85,1179.51h90.55c0-75.01,60.81-135.82,135.82-135.82v-90.55c-125.02,0-226.37,101.35-226.37,226.37Z"/><polygon class="cls-2" points="1656.07 953.14 1656.07 1179.51 1429.7 1179.51 1656.07 953.14"/><polygon class="cls-2" points="953.14 953.14 953.14 998.41 1134.23 998.41 1134.23 1179.51 1179.51 1179.51 1179.51 953.14 953.14 953.14"/><rect class="cls-1" x="1191.42" y="953.14" width="226.37" height="226.37" transform="translate(238.28 2370.93) rotate(-90)"/><path class="cls-2" d="m464.65,1239.98v40.15l-137.66,137.66h-40.15l177.8-177.8Zm0,108.79v-40.15l-109.17,109.17h40.15l69.02-69.02Zm-226.37,69.02h20.07l206.3-206.3v-20.07h-20.07l-206.3,206.3v20.07Zm0-88.71v40.15l177.8-177.8h-40.15l-137.66,137.66Zm40.53-137.66h-40.53v40.53l40.53-40.53Zm145.31,226.37h40.53v-40.53l-40.53,40.53Zm-185.84-157.35v40.15l109.17-109.17h-40.15l-69.02,69.02Z"/><path class="cls-1" d="m499.61,1373.73l159.27-159.27c7.89,6.06,14.96,13.13,21.02,21.02l-159.27,159.27c-7.89-6.06-14.96-13.13-21.02-21.02Zm-23.04-78.68l103.62-103.62c-55.11,4.6-99.03,48.51-103.62,103.62Zm1.2,28.64c1.9,11.21,5.43,21.86,10.35,31.69l152.41-152.41c-9.84-4.92-20.48-8.46-31.69-10.35l-131.07,131.07Zm223.98-38.16c-1.9-11.21-5.43-21.86-10.35-31.69l-152.41,152.41c9.84,4.92,20.48,8.46,31.69,10.35l131.07-131.07Zm1.2,28.64l-103.62,103.62c55.11-4.6,99.03-48.51,103.62-103.62Z"/><path class="cls-2" d="m941.22,1417.79v-226.37h-226.37v226.37h226.37Zm-187.6-187.6h148.84v148.84h-148.84v-148.84Z"/><path class="cls-2" d="m1417.79,1191.42h-226.37v226.37h226.37v-226.37Zm-187.6,187.6v-148.84h148.84s0,148.84,0,148.84h-148.84Z"/><polygon class="cls-1" points="953.14 1191.42 953.14 1236.69 1134.23 1236.69 1134.23 1417.79 1179.51 1417.79 1179.51 1191.42 953.14 1191.42"/><circle class="cls-1" cx="1542.89" cy="1304.6" r="113.18"/><polygon class="cls-2" points="702.94 1429.7 657.66 1429.7 657.66 1610.8 476.57 1610.8 476.57 1656.07 702.94 1656.07 702.94 1429.7"/><path class="cls-2" d="m177.8,1656.07h-40.15L0,1518.42v-40.15l177.8,177.8Zm-108.79,0h40.15L0,1546.91v40.15l69.02,69.02ZM0,1429.7v20.07l206.3,206.3h20.07v-20.07l-206.3-206.3H0Zm88.71,0h-40.15l177.8,177.8v-40.15l-137.66-137.66Zm137.66,40.53v-40.53h-40.53l40.53,40.53ZM0,1615.55v40.53h40.53L0,1615.55Zm157.35-185.84h-40.15l109.17,109.17v-40.15l-69.02-69.02Z"/><polygon class="cls-1" points="464.65 1429.7 419.38 1429.7 419.38 1610.8 238.28 1610.8 238.28 1656.07 464.65 1656.07 464.65 1429.7"/><path class="cls-1" d="m714.85,1429.7v226.37h226.37v-226.37h-226.37Zm187.6,187.6h-148.84v-148.84h148.84v148.84Z"/><path class="cls-1" d="m1191.42,1607.51v-40.15l137.66-137.66h40.15l-177.8,177.8Zm0-108.79v40.15l109.17-109.17h-40.15l-69.02,69.02Zm226.37-69.02h-20.07l-206.3,206.3v20.07h20.07l206.3-206.3v-20.07Zm0,88.71v-40.15l-177.8,177.8h40.15l137.66-137.66Zm-40.53,137.66h40.53v-40.53l-40.53,40.53Zm-145.31-226.37h-40.53v40.53l40.53-40.53Zm185.84,157.35v-40.15l-109.17,109.17h40.15l69.02-69.02Z"/><path class="cls-2" d="m1135.44,1633.03l-159.27-159.27c6.06-7.89,13.13-14.96,21.02-21.02l159.27,159.27c-6.06,7.89-13.13,14.96-21.02,21.02Zm-78.68,23.04l-103.62-103.62c4.6,55.11,48.51,99.03,103.62,103.62Zm28.64-1.2c11.21-1.9,21.86-5.43,31.69-10.35l-152.41-152.41c-4.92,9.84-8.46,20.48-10.35,31.69l131.07,131.07Zm-38.16-223.98c-11.21,1.9-21.86,5.43-31.69,10.35l152.41,152.41c4.92-9.84,8.46-20.48,10.35-31.69l-131.07-131.07Zm28.64-1.2l103.62,103.62c-4.6-55.11-48.51-99.03-103.62-103.62Z"/><polygon class="cls-2" points="1656.07 1429.7 1610.8 1429.7 1610.8 1610.8 1429.7 1610.8 1429.7 1656.07 1656.07 1656.07 1656.07 1429.7"/><rect class="cls-2" x="238.28" y="1667.99" width="226.37" height="226.37" transform="translate(2132.64 1429.7) rotate(90)"/><rect class="cls-1" x="476.57" y="1667.99" width="226.37" height="226.37" transform="translate(-1191.42 2370.93) rotate(-90)"/><path class="cls-2" d="m941.22,1667.99h-226.37v226.37h226.37v-226.37Zm-187.6,187.6v-148.84h148.84s0,148.84,0,148.84h-148.84Z"/><circle class="cls-1" cx="1066.32" cy="1781.17" r="113.18"/><circle class="cls-2" cx="113.18" cy="2019.46" r="113.18"/><polygon class="cls-1" points="464.65 2132.64 238.28 2132.64 238.28 1906.27 464.65 2132.64"/><path class="cls-1" d="m941.22,1954.84v40.15l-137.66,137.66h-40.15l177.8-177.8Zm0,108.79v-40.15l-109.17,109.17h40.15l69.02-69.02Zm-226.37,69.02h20.07l206.3-206.3v-20.07h-20.07l-206.3,206.3v20.07Zm0-88.71v40.15l177.8-177.8h-40.15l-137.66,137.66Zm40.53-137.66h-40.53v40.53l40.53-40.53Zm145.31,226.37h40.53v-40.53l-40.53,40.53Zm-185.84-157.35v40.15l109.17-109.17h-40.15l-69.02,69.02Z"/><rect class="cls-2" x="953.14" y="1906.27" width="226.37" height="226.37" transform="translate(2132.64 4038.91) rotate(180)"/><polygon class="cls-2" points="476.57 2132.64 476.57 1906.27 702.94 1906.27 476.57 2132.64"/><path class="cls-1" d="m1191.42,1906.27v226.37h226.37v-226.37h-226.37Zm187.6,187.6h-148.84v-148.84h148.84v148.84Z"/><path class="cls-2" d="m1542.89,2132.64c62.51,0,113.18-50.67,113.18-113.18s-50.67-113.18-113.18-113.18-113.18,50.67-113.18,113.18,50.67,113.18,113.18,113.18Zm0-181.1c37.51,0,67.91,30.4,67.91,67.91s-30.4,67.91-67.91,67.91-67.91-30.4-67.91-67.91,30.4-67.91,67.91-67.91Z"/><path class="cls-2" d="m416.09,2370.93h-40.15l-137.66-137.66v-40.15l177.8,177.8Zm-108.79,0h40.15l-109.17-109.17v40.15l69.02,69.02Zm-69.02-226.37v20.07l206.3,206.3h20.07v-20.07l-206.3-206.3h-20.07Zm88.71,0h-40.15l177.8,177.8v-40.15l-137.66-137.66Zm137.66,40.53v-40.53h-40.53l40.53,40.53Zm-226.37,145.31v40.53h40.53l-40.53-40.53Zm157.35-185.84h-40.15l109.17,109.17v-40.15l-69.02-69.02Z"/><polygon class="cls-1" points="0 2144.56 0 2189.83 181.1 2189.83 181.1 2370.93 226.37 2370.93 226.37 2144.56 0 2144.56"/><rect class="cls-1" x="476.57" y="2144.56" width="226.37" height="226.37" transform="translate(1179.51 4515.48) rotate(180)"/><rect class="cls-2" x="714.85" y="2144.56" width="226.37" height="226.37"/><rect class="cls-2" x="1191.42" y="2144.56" width="226.37" height="226.37" transform="translate(-953.14 3562.35) rotate(-90)"/><path class="cls-2" d="m953.14,0v226.37h226.37V0h-226.37Zm187.6,187.6h-148.84V38.77h148.84v148.84Z"/><path class="cls-2" d="m226.37,0H0v226.37h226.37V0ZM38.77,187.6V38.77h148.84v148.84H38.77Z"/><path class="cls-1" d="m464.65,0h-90.55c0,75.01-60.81,135.82-135.82,135.82v90.55c125.02,0,226.37-101.35,226.37-226.37Z"/><path class="cls-2" d="m763.42,714.85h40.15l137.66,137.66v40.15l-177.8-177.8Zm108.79,0h-40.15l109.17,109.17v-40.15l-69.02-69.02Zm69.02,226.37v-20.07l-206.3-206.3h-20.07v20.07l206.3,206.3h20.07Zm-88.71,0h40.15l-177.8-177.8v40.15l137.66,137.66Zm-137.66-40.53v40.53h40.53l-40.53-40.53Zm226.37-145.31v-40.53h-40.53l40.53,40.53Zm-157.35,185.84h40.15l-109.17-109.17v40.15l69.02,69.02Z"/></g></svg>