<svg xmlns="http://www.w3.org/2000/svg" width="106.248" height="94.439" viewBox="0 0 106.248 94.439">
  <g id="Group_20" data-name="Group 20" transform="translate(-16.435 42.012)">
    <g id="Group_131" data-name="Group 131" transform="translate(-61.565 28.072)">
      <g id="Group_130" data-name="Group 130" transform="translate(105.633 -70.084)">
        <path id="Path_107" data-name="Path 107" d="M94.988,0C86.744,4.691,75.294,4.621,74.306,4.607h-.069C73.251,4.621,61.8,4.691,53.556,0c0,0-18.737,37.53,20.654,62.734h.124C113.725,37.53,94.989,0,94.989,0" transform="translate(-49.103 0)" fill="#046a38"/>
        <path id="Path_108" data-name="Path 108" d="M94.988,5.414A62.34,62.34,0,0,1,75.535,8.94v0h-.111v0A54.138,54.138,0,0,1,56.056,5.128c-1.071,2.812-7.426,20.346,1.763,37.82a43.946,43.946,0,0,0,17.6,17.826h.111a43.725,43.725,0,0,0,17.6-17.826c8.269-15.843,3.687-31.907,2.558-35.476-.272-.857-.524-1.562-.708-2.056" transform="translate(-50.28 -1.583)" fill="#fff"/>
        <path id="Path_109" data-name="Path 109" d="M94.643,6.857a60.076,60.076,0,0,1-18.748,3.4v0h-.107v0A52.2,52.2,0,0,1,57.119,6.58c-1.032,2.71-7.157,19.609,1.7,36.45A42.35,42.35,0,0,0,75.784,60.21h.107A42.144,42.144,0,0,0,92.858,43.03c7.969-15.27,3.554-30.752,2.465-34.192-.262-.825-.505-1.505-.682-1.981" transform="translate(-50.643 -2.031)" fill="#041e42"/>
        <path id="Path_110" data-name="Path 110" d="M71.19,26.952l-.143-.125v-.893l.143-.125q3.052.143,4.713.143.622,0,4.944-.143,1.392-.035,2.017-.035a12.179,12.179,0,0,1,3.82.484,4.464,4.464,0,0,1,2.267,1.7,4.722,4.722,0,0,1,.857,2.776,5.6,5.6,0,0,1-1.428,3.677,8.278,8.278,0,0,1-4.641,2.428,19.187,19.187,0,0,1,3.181.518,6.106,6.106,0,0,1,2.16,1.044,4.9,4.9,0,0,1,1.437,1.829,6.1,6.1,0,0,1,.526,2.607,8.194,8.194,0,0,1-.357,2.356,6.969,6.969,0,0,1-1.314,2.374,9.109,9.109,0,0,1-2.312,2.017A10.21,10.21,0,0,1,84.284,50.8a14.074,14.074,0,0,1-3.526.375q-.428,0-2.571-.089-2.374-.054-2.57-.053-1.214,0-2.981.142l-.142-.142v-.589l.142-.178a5.079,5.079,0,0,0,1.2-.643,14,14,0,0,0,.259-3.16q.1-2.981.1-4.552V35.361l-.018-4.052q0-1.321-.035-2.151a10.492,10.492,0,0,0-.1-1.187.946.946,0,0,0-.207-.5,1.145,1.145,0,0,0-.4-.241,4.049,4.049,0,0,0-.884-.169ZM77.6,36.324q.893.069,2.018.069,3.694,0,5.141-1.321A4.66,4.66,0,0,0,86.2,31.448a4.4,4.4,0,0,0-.553-2.275,3.53,3.53,0,0,0-1.74-1.437,8.506,8.506,0,0,0-3.222-.5,14.293,14.293,0,0,0-2.927.268Q77.6,29.11,77.6,33.109Zm.036,13.012a12.371,12.371,0,0,0,2.82.322,8.135,8.135,0,0,0,4-.821,5.048,5.048,0,0,0,2.133-2.275,7.321,7.321,0,0,0,.687-3.169,5.756,5.756,0,0,0-1.452-4.115q-1.452-1.543-6.292-1.544-.8,0-1.928.069v6.084Z" transform="translate(-55.874 -7.952)" fill="#fff"/>
        <path id="Path_111" data-name="Path 111" d="M79.412,72.189l-.037-.012-.021-.169.021-.021a5.208,5.208,0,0,0,.523-.192c.212-.088.362-.156.454-.2l.054.021q-.033.906-.033,1.088v.768q0,.283.006.532a2.1,2.1,0,0,0,.019.295.138.138,0,0,0,.042.069.166.166,0,0,0,.084.032c.036,0,.143.012.321.022l.015.017v.093l-.015.017q-.453-.017-.64-.017c-.092,0-.323.006-.691.017l-.015-.017v-.093l.017-.017q.31-.023.355-.033a.132.132,0,0,0,.069-.037.212.212,0,0,0,.038-.1A3.855,3.855,0,0,0,80,73.822c.006-.238.009-.359.009-.364V71.991c0-.035-.015-.052-.037-.052l-.023,0q-.015,0-.091.037l-.207.091c-.085.037-.166.077-.242.118" transform="translate(-58.438 -22.092)" fill="#fff"/>
        <path id="Path_112" data-name="Path 112" d="M82.576,73.076a1.029,1.029,0,0,1-.349-.277.621.621,0,0,1-.119-.384.73.73,0,0,1,.234-.543.873.873,0,0,1,.637-.227,1.017,1.017,0,0,1,.38.069.582.582,0,0,1,.27.214.556.556,0,0,1,.1.315.614.614,0,0,1-.112.346,1.249,1.249,0,0,1-.395.339v.019a2.824,2.824,0,0,1,.359.2.62.62,0,0,1,.192.218.658.658,0,0,1,.075.317.878.878,0,0,1-.142.473.927.927,0,0,1-.373.346,1.043,1.043,0,0,1-.48.118.884.884,0,0,1-.6-.2.675.675,0,0,1-.236-.54.716.716,0,0,1,.162-.471,1.106,1.106,0,0,1,.4-.308Zm.167.075a.923.923,0,0,0-.339.311.753.753,0,0,0-.095.378.636.636,0,0,0,.165.465.574.574,0,0,0,.426.169.635.635,0,0,0,.323-.083.523.523,0,0,0,.216-.227.691.691,0,0,0,.069-.313.461.461,0,0,0-.171-.381,2.786,2.786,0,0,0-.6-.319m.315-.273a.853.853,0,0,0,.3-.277.594.594,0,0,0,.079-.3.513.513,0,0,0-.138-.377.491.491,0,0,0-.366-.138.54.54,0,0,0-.364.123.427.427,0,0,0-.145.346.468.468,0,0,0,.094.29,1.737,1.737,0,0,0,.539.337" transform="translate(-59.258 -22.109)" fill="#fff"/>
        <path id="Path_113" data-name="Path 113" d="M86.054,73.076A1.029,1.029,0,0,1,85.7,72.8a.621.621,0,0,1-.119-.384.73.73,0,0,1,.234-.543.873.873,0,0,1,.638-.227,1.017,1.017,0,0,1,.38.069.581.581,0,0,1,.27.214.557.557,0,0,1,.1.315.615.615,0,0,1-.112.346,1.249,1.249,0,0,1-.395.339v.019a2.824,2.824,0,0,1,.359.2.62.62,0,0,1,.192.218.658.658,0,0,1,.075.317.878.878,0,0,1-.142.473.927.927,0,0,1-.373.346,1.043,1.043,0,0,1-.48.118.884.884,0,0,1-.6-.2.675.675,0,0,1-.236-.54.715.715,0,0,1,.162-.471,1.106,1.106,0,0,1,.4-.308Zm.167.075a.923.923,0,0,0-.339.311.753.753,0,0,0-.095.378.636.636,0,0,0,.165.465.574.574,0,0,0,.426.169.635.635,0,0,0,.323-.083.523.523,0,0,0,.216-.227.691.691,0,0,0,.069-.313.461.461,0,0,0-.171-.381,2.786,2.786,0,0,0-.6-.319m.315-.273a.853.853,0,0,0,.3-.277.594.594,0,0,0,.079-.3.513.513,0,0,0-.138-.377.491.491,0,0,0-.366-.138.54.54,0,0,0-.364.123.427.427,0,0,0-.145.346.468.468,0,0,0,.094.29,1.736,1.736,0,0,0,.539.337" transform="translate(-60.331 -22.109)" fill="#fff"/>
        <path id="Path_114" data-name="Path 114" d="M89,73.272a5.313,5.313,0,0,1,.037-.663,1.453,1.453,0,0,1,.165-.525.9.9,0,0,1,.319-.346.832.832,0,0,1,.436-.115.843.843,0,0,1,.484.143.8.8,0,0,1,.3.438,2.823,2.823,0,0,1,.092.8,2.287,2.287,0,0,1-.254,1.219.837.837,0,0,1-1.1.294.773.773,0,0,1-.283-.281,1.252,1.252,0,0,1-.155-.434,3.077,3.077,0,0,1-.045-.534m.356-.12a4.07,4.07,0,0,0,.059.716.89.89,0,0,0,.2.465.441.441,0,0,0,.328.138.408.408,0,0,0,.307-.126.84.84,0,0,0,.18-.433,4.243,4.243,0,0,0,.057-.761,3.048,3.048,0,0,0-.134-1.047.461.461,0,0,0-.445-.339.44.44,0,0,0-.409.263,2.835,2.835,0,0,0-.138,1.117" transform="translate(-61.413 -22.101)" fill="#fff"/>
        <path id="Path_115" data-name="Path 115" d="M61.122,10.512c.069-.082.088-.1.106-.089s.024.025.026.127c0,.126.036,1.49.069,2,.019.3.093.375.151.415a.468.468,0,0,0,.117.06c.019.006.03.013.026.028s-.036.014-.069,0-.272-.092-.484-.172c-.058-.024-.091-.035-.086-.053s.016-.014.029-.012.048-.019.046-.069c-.011-.272-.02-.543-.028-.814A.028.028,0,0,0,61,11.9q-.324-.116-.646-.237a.033.033,0,0,0-.039.012c-.124.148-.25.295-.375.441a.63.63,0,0,0-.117.177c-.022.057.032.108.084.127l.03.012c.021.008.028.017.024.028s-.027.017-.055.006c-.073-.028-.2-.086-.235-.1s-.2-.069-.346-.124c-.04-.016-.056-.028-.049-.046s.019-.012.035-.006.064.021.09.028c.147.037.25-.048.36-.171q.692-.76,1.352-1.536M61,11.784c.015.006.018,0,.019-.016v-.884c0-.048-.014-.054-.044-.016q-.277.345-.553.682c-.012.012-.008.02,0,.024q.286.107.573.207" transform="translate(-52.243 -3.217)" fill="#fff"/>
        <path id="Path_116" data-name="Path 116" d="M63.768,12.124c.149-.457.176-.538.2-.634s.018-.156-.069-.207a.61.61,0,0,0-.1-.042c-.012,0-.022-.014-.018-.026s.022-.019.055-.008c.133.044.316.113.331.119.035.011.225.062.4.118a1.713,1.713,0,0,1,1.094.695,1.1,1.1,0,0,1,.08.835,1.217,1.217,0,0,1-.57.742,1.29,1.29,0,0,1-1.043.059c-.133-.041-.3-.1-.427-.153s-.236-.095-.251-.1-.059-.018-.125-.037-.135-.038-.181-.053-.048-.022-.041-.039.012-.017.03-.01a.454.454,0,0,0,.1.02c.069.008.1-.051.142-.132.055-.118.131-.346.223-.631.057-.171.113-.346.169-.515m.151.4c-.1.31-.184.581-.2.638a.646.646,0,0,0-.038.234c.022.069.123.169.489.283A1.1,1.1,0,0,0,65,13.624a1.038,1.038,0,0,0,.451-.635,1.1,1.1,0,0,0-.074-.83,1.328,1.328,0,0,0-.875-.63.814.814,0,0,0-.2-.039.055.055,0,0,0-.055.047c-.035.1-.131.4-.2.622-.039.121-.077.243-.117.363" transform="translate(-53.424 -3.457)" fill="#fff"/>
        <path id="Path_117" data-name="Path 117" d="M70.014,14.876c.277-.361.915-1.323,1.025-1.528a.487.487,0,0,0,.051-.109.075.075,0,0,0-.025-.077.378.378,0,0,0-.113-.037c-.018,0-.033-.01-.029-.025s.023-.02.069-.01c.121.026.259.064.3.069.018,0,.15.021.238.038.033.007.05.017.047.032s-.016.019-.04.014a.287.287,0,0,0-.153.007c-.046.019-.1.062-.226.25-.05.077-.277.408-.517.745-.283.4-.5.691-.6.824-.129.161-.152.207-.184.2s-.044-.055-.069-.212q-.174-1.008-.322-2.015c-.026-.184-.062-.227-.16-.283a.488.488,0,0,0-.111-.041c-.018,0-.021-.015-.019-.027s.035-.013.084,0c.144.036.313.087.349.1s.167.031.282.058c.055.012.08.025.077.04s-.014.019-.035.014a.379.379,0,0,0-.118-.012.062.062,0,0,0-.053.051,1.167,1.167,0,0,0,.023.268q.109.836.237,1.673" transform="translate(-55.294 -3.912)" fill="#fff"/>
        <path id="Path_118" data-name="Path 118" d="M73.134,15.04c-.053.292-.1.531-.1.661-.007.09,0,.159.093.189.044.014.112.032.138.038s.024.012.022.021-.02.021-.055.015c-.175-.03-.374-.075-.39-.079s-.218-.032-.313-.05c-.035-.006-.05-.015-.046-.033s.01-.017.029-.014a.513.513,0,0,0,.1.006c.069,0,.095-.063.124-.149.04-.124.085-.364.138-.653.033-.178.069-.355.1-.533.089-.472.105-.557.117-.655s-.008-.161-.069-.188a.359.359,0,0,0-.092-.03.02.02,0,0,1-.021-.023c0-.012.019-.021.053-.015.1.019.29.064.3.069s.207.028.3.045c.034,0,.048.014.044.032s-.015.016-.028.013a.725.725,0,0,0-.077,0c-.085,0-.119.047-.144.152s-.039.181-.126.653l-.1.533" transform="translate(-56.316 -4.18)" fill="#fff"/>
        <path id="Path_119" data-name="Path 119" d="M75.7,15.423c-.042.292-.077.534-.08.664,0,.09.006.16.1.185.047.013.095.024.142.032.019,0,.024.012.023.021s-.019.022-.055.017c-.176-.024-.376-.062-.392-.065s-.219-.023-.315-.037c-.035-.006-.05-.014-.047-.032s.009-.017.028-.015a.46.46,0,0,0,.1,0c.069,0,.092-.069.118-.153.035-.126.069-.366.115-.659l.193-1.289-.454-.063c-.19-.027-.267-.018-.328.047a.586.586,0,0,0-.069.086c-.013.023-.024.027-.035.025s-.014-.011-.011-.03.11-.281.12-.3.028-.055.04-.053a.582.582,0,0,0,.129.058c.086.024.2.048.238.054q.573.089,1.146.165a1.224,1.224,0,0,0,.219.013c.047,0,.075-.006.088,0s.013.02.01.038c-.011.092-.047.3-.052.335s-.014.038-.026.037-.02-.012-.018-.055v-.035c0-.093-.063-.171-.356-.217l-.385-.06q-.093.645-.186,1.29" transform="translate(-57.011 -4.259)" fill="#fff"/>
        <path id="Path_120" data-name="Path 120" d="M78.815,14.516c.047-.1.061-.115.08-.113s.029.018.057.117c.031.121.4,1.433.562,1.915.092.283.182.339.248.363a.471.471,0,0,0,.127.028c.019,0,.032.006.031.021s-.031.022-.069.019-.283-.021-.5-.046c-.061-.008-.1-.012-.095-.03s.011-.018.024-.019.041-.03.026-.082q-.115-.39-.227-.781a.029.029,0,0,0-.027-.021c-.226-.021-.453-.044-.679-.069a.033.033,0,0,0-.034.021c-.083.174-.166.346-.25.521a.621.621,0,0,0-.069.2c-.007.061.057.1.112.1h.032c.023,0,.032.009.03.021s-.022.023-.051.019c-.077-.008-.214-.033-.25-.037s-.213-.015-.364-.033c-.041,0-.06-.013-.057-.032s.015-.017.03-.015.069,0,.094,0c.149,0,.227-.11.3-.256q.472-.91.917-1.826m.2,1.258c.016,0,.017-.008.015-.02q-.111-.428-.216-.857c-.011-.048-.026-.049-.046,0q-.178.4-.361.8c-.008.015,0,.021.007.022.2.021.4.041.6.06" transform="translate(-57.855 -4.444)" fill="#fff"/>
        <path id="Path_121" data-name="Path 121" d="M83.831,16.671c.01.111.029.284.167.33a.724.724,0,0,0,.207.03c.016,0,.026,0,.025.015s-.029.028-.069.027c-.069,0-.42-.009-.539-.021-.074-.008-.09-.018-.089-.033S83.54,17,83.556,17s.021-.055.016-.111q-.057-.8-.109-1.6h-.01q-.4.791-.834,1.574c-.073.132-.084.16-.113.158s-.037-.032-.093-.146c-.077-.155-.324-.7-.337-.733-.028-.057-.336-.815-.363-.9H81.7q-.108.709-.219,1.418c-.007.049-.01.1-.014.157a.1.1,0,0,0,.077.1.6.6,0,0,0,.121.023c.013,0,.026.008.025.017s-.021.026-.059.024c-.12-.008-.277-.027-.3-.029s-.184,0-.271-.01c-.032,0-.055-.01-.053-.032s.017-.014.034-.012a.459.459,0,0,0,.1,0c.107-.011.125-.131.147-.246q.186-.995.362-1.989c.006-.033.019-.055.037-.053s.03.015.044.049q.41,1,.856,1.986.514-.946.993-1.9c.012-.027.026-.048.047-.048s.03.025.035.084q.081.95.169,1.9" transform="translate(-58.948 -4.509)" fill="#fff"/>
        <path id="Path_122" data-name="Path 122" d="M88.154,15.671c-.011-.481-.013-.567-.021-.665s-.035-.153-.138-.172a.592.592,0,0,0-.105-.008c-.012,0-.025-.006-.025-.018s.015-.025.049-.026h.346c.069,0,.247-.017.389-.021a.771.771,0,0,1,.582.151.534.534,0,0,1,.172.359.717.717,0,0,1-.667.764.7.7,0,0,1-.076,0,.577.577,0,0,1-.069,0c-.015,0-.035,0-.035-.021s.018-.028.085-.03a.515.515,0,0,0,.525-.505v-.018A.651.651,0,0,0,88.97,15a.541.541,0,0,0-.429-.138.36.36,0,0,0-.133.023c-.018.006-.024.028-.023.059q.019.633.036,1.266c.008.3.015.539.035.667.012.089.033.156.131.166.045,0,.116.008.146.007s.026.009.026.018-.016.025-.051.026c-.178.006-.382,0-.4,0s-.214.015-.31.017c-.035,0-.052-.006-.052-.024s.006-.018.026-.019a.566.566,0,0,0,.1-.015c.064-.013.08-.082.091-.171.012-.129.007-.373,0-.669l-.012-.542" transform="translate(-61.064 -4.552)" fill="#fff"/>
        <path id="Path_123" data-name="Path 123" d="M91.45,14.659c.029-.1.04-.123.059-.124s.032.012.076.105c.052.114.647,1.341.889,1.788.138.262.239.3.308.314a.436.436,0,0,0,.131.006c.019,0,.033,0,.035.015s-.027.028-.062.031-.284.028-.507.042c-.062,0-.1.006-.1-.013s.008-.019.021-.024.035-.037.012-.084q-.184-.364-.362-.729a.028.028,0,0,0-.03-.016q-.34.028-.682.052a.034.034,0,0,0-.03.027c-.051.185-.1.371-.156.557a.641.641,0,0,0-.032.207c0,.062.073.085.128.082h.032c.022,0,.033,0,.033.016s-.018.026-.047.028c-.077.006-.216,0-.252.008s-.213.022-.364.03c-.042,0-.062,0-.063-.021s.012-.019.028-.02.069-.007.093-.011c.147-.027.207-.148.254-.3q.307-.978.587-1.958m.42,1.2c.016,0,.015-.01.011-.023-.123-.268-.243-.537-.363-.806-.019-.045-.035-.044-.047,0q-.106.425-.216.85c-.006.016,0,.022.011.021.2-.014.4-.029.6-.046" transform="translate(-61.873 -4.486)" fill="#fff"/>
        <path id="Path_124" data-name="Path 124" d="M94.191,15.242c-.051-.478-.061-.564-.077-.662s-.048-.149-.151-.16a.675.675,0,0,0-.106,0c-.012,0-.025,0-.026-.015s.012-.026.046-.03c.138-.015.333-.026.349-.029.034,0,.266-.039.362-.051a.977.977,0,0,1,.58.065.543.543,0,0,1,.269.387.936.936,0,0,1-.287.755q.363.364.761.691a.668.668,0,0,0,.422.162.867.867,0,0,0,.127-.01c.016,0,.03.006.032.015s-.016.027-.074.036l-.227.033a.661.661,0,0,1-.352-.009,1.551,1.551,0,0,1-.492-.391c-.156-.15-.33-.337-.4-.409a.053.053,0,0,0-.044-.014l-.389.041c-.016,0-.021.012-.019.027s0,.048.008.069c.033.294.06.536.091.663.019.087.046.153.144.153a1.3,1.3,0,0,0,.147,0c.019,0,.026.006.028.015s-.013.026-.048.03c-.178.021-.381.035-.4.037,0,0-.207.032-.3.043-.035,0-.052,0-.054-.02s0-.019.024-.021a.44.44,0,0,0,.095-.023c.064-.019.069-.088.076-.178,0-.131-.024-.373-.055-.667l-.058-.539m.281.238a.037.037,0,0,0,.026.034.876.876,0,0,0,.337.011.419.419,0,0,0,.229-.087.554.554,0,0,0,.132-.5c-.05-.383-.283-.584-.612-.546a.922.922,0,0,0-.207.043.036.036,0,0,0-.021.039q.057.5.113,1" transform="translate(-62.904 -4.405)" fill="#fff"/>
        <path id="Path_125" data-name="Path 125" d="M98.13,13.851c.02-.106.029-.127.047-.13s.033.01.086.1c.062.109.77,1.275,1.054,1.7.164.248.266.277.337.283a.441.441,0,0,0,.131-.007c.019,0,.033,0,.035.012s-.024.03-.059.037-.281.055-.5.089c-.062.008-.1.015-.1,0s.006-.02.019-.025.032-.041,0-.086q-.216-.345-.429-.691a.027.027,0,0,0-.031-.013c-.225.04-.451.078-.677.115a.032.032,0,0,0-.028.029c-.035.19-.069.38-.105.57a.619.619,0,0,0-.012.211c.01.061.081.077.138.069l.032,0c.022,0,.033,0,.035.013s-.015.027-.044.032c-.077.012-.216.025-.252.03s-.207.042-.362.064c-.042.006-.062,0-.065-.015s.01-.02.026-.022.069-.013.093-.02c.145-.041.192-.167.225-.328q.218-1,.406-2.005m.532,1.158c.016,0,.014-.012.009-.024q-.221-.383-.438-.768c-.023-.043-.038-.04-.046.008q-.07.434-.138.867c0,.016,0,.021.013.019q.3-.05.6-.1" transform="translate(-64.001 -4.235)" fill="#fff"/>
        <path id="Path_126" data-name="Path 126" d="M103.638,14.468c.039.1.1.266.251.272a.757.757,0,0,0,.212-.026c.016,0,.026,0,.029.008s-.021.035-.059.044c-.069.019-.415.1-.532.124-.075.012-.093.007-.1-.008s0-.02.017-.027.006-.058-.015-.111q-.268-.757-.532-1.515H102.9q-.185.871-.395,1.741c-.037.148-.04.177-.069.183s-.045-.021-.13-.116c-.116-.128-.5-.588-.523-.615-.041-.048-.543-.7-.593-.771h-.012q.084.712.164,1.426c.007.049.018.1.028.155a.1.1,0,0,0,.1.076.619.619,0,0,0,.124-.01c.013,0,.027,0,.029.01s-.014.031-.052.039c-.118.025-.273.047-.3.052s-.18.046-.266.064c-.033.006-.056,0-.06-.017s.013-.018.029-.021a.492.492,0,0,0,.094-.028c.1-.039.088-.159.077-.277q-.083-1.007-.177-2.014c0-.033,0-.057.023-.061s.033.006.055.035q.664.851,1.362,1.686.25-1.051.462-2.1c.006-.03.012-.054.034-.059s.036.017.056.069q.332.894.669,1.785" transform="translate(-65.103 -3.891)" fill="#fff"/>
        <path id="Path_127" data-name="Path 127" d="M105.491,12.865c-.127-.464-.149-.547-.181-.64s-.069-.138-.176-.134a.677.677,0,0,0-.106.019c-.012,0-.026,0-.028-.011s.008-.028.041-.037c.138-.037.322-.079.346-.086s.207-.069.3-.093c.033-.009.05-.008.055.01s-.008.021-.019.024a.556.556,0,0,0-.073.03c-.078.035-.088.095-.064.2s.044.18.173.643q.057.207.115.415c.119.427.27.583.439.667a.661.661,0,0,0,.521.025.7.7,0,0,0,.428-.361,1.143,1.143,0,0,0-.041-.777l-.114-.368c-.142-.459-.167-.541-.2-.633s-.075-.138-.18-.128a.6.6,0,0,0-.105.022c-.012,0-.026,0-.029-.01s.008-.028.041-.038c.138-.041.3-.084.32-.09s.159-.059.249-.088c.032-.011.049-.01.055.008s-.006.021-.019.026a.523.523,0,0,0-.069.032c-.075.044-.084.1-.058.2s.049.178.193.637c.033.105.069.207.1.315a1.147,1.147,0,0,1-.012.968.987.987,0,0,1-.581.415,1.027,1.027,0,0,1-.708-.024.976.976,0,0,1-.484-.705l-.118-.434" transform="translate(-66.352 -3.523)" fill="#fff"/>
        <path id="Path_128" data-name="Path 128" d="M110.049,13.09c-.05-.006-.057-.017-.084-.1-.048-.146-.075-.267-.088-.315s-.006-.05.009-.055.025,0,.032.025a.569.569,0,0,0,.046.105.441.441,0,0,0,.56.138.425.425,0,0,0,.315-.512.255.255,0,0,0-.008-.031c-.069-.2-.2-.284-.536-.4l-.175-.059c-.409-.142-.541-.3-.608-.5a.578.578,0,0,1,.381-.723l.058-.015a1.28,1.28,0,0,1,.286-.069.489.489,0,0,0,.109-.023c.024-.008.032,0,.037.01s.028.114.1.312c.017.046.019.069,0,.074s-.026-.007-.037-.029a.527.527,0,0,0-.091-.131c-.029-.026-.153-.118-.427-.021a.358.358,0,0,0-.261.434c0,.01.006.021.01.031.057.166.17.245.537.362l.107.034c.453.144.6.291.687.523a.623.623,0,0,1-.09.576.9.9,0,0,1-.427.287,1.044,1.044,0,0,1-.444.064" transform="translate(-67.736 -3.258)" fill="#fff"/>
      </g>
      <g id="Group_260" data-name="Group 260" transform="translate(78 6.211)">
        <path id="Path_129" data-name="Path 129" d="M5.772,107.43a2.106,2.106,0,0,1-1.2,1.914,3.054,3.054,0,0,1-1.52.335c-.2,0-.359,0-.488,0l-1.176-.025q-.631,0-.974.029l-.049-.049v-.137l.025-.059a1.7,1.7,0,0,0,.393-.29,2.525,2.525,0,0,0,.054-.654l.015-1.1v-2.495a10.963,10.963,0,0,0-.064-1.526.215.215,0,0,0-.167-.182,5.492,5.492,0,0,0-.576-.049L0,103.085v-.335l.049-.044q.438.03,1.506.03.679,0,1.225-.025.433-.019.733-.02a2.072,2.072,0,0,1,1.8.625,1.306,1.306,0,0,1,.226.758,1.475,1.475,0,0,1-.546,1.166,1.912,1.912,0,0,1-.541.329,5.535,5.535,0,0,1-.709.212q2.028.089,2.027,1.648m-1.717-3.115q0-1.087-1.132-1.087a4.3,4.3,0,0,0-.634.039q-.019.517-.02.955v1.358c.075.006.226.01.453.01a1.174,1.174,0,0,0,1.171-.571,1.579,1.579,0,0,0,.162-.7m.211,3.267q0-1.477-1.55-1.476-.2,0-.448.015V108.4c0,.247.007.487.02.723a3.483,3.483,0,0,0,.565.035,1.331,1.331,0,0,0,1.063-.433,1.714,1.714,0,0,0,.349-1.142" transform="translate(0 -102.591)" fill="#0f213f"/>
        <path id="Path_130" data-name="Path 130" d="M16.217,108.015a10.985,10.985,0,0,0-.108,1.624l-.049.049-3.577-.03q-.9,0-1.264.03l-.049-.049V109.5l.025-.059a1.725,1.725,0,0,0,.393-.29,2.609,2.609,0,0,0,.054-.655l.015-1.1V104.9a11.018,11.018,0,0,0-.065-1.525.214.214,0,0,0-.167-.182,5.286,5.286,0,0,0-.576-.049l-.049-.049v-.335l.049-.045q.5.03,1.535.03.926,0,3.518-.03l.054.04-.063.546c-.02.174-.035.321-.045.442l-.034.458-.049.054h-.285l-.049-.049a2.016,2.016,0,0,0-.079-.763,1.133,1.133,0,0,0-.53-.109c-.316-.026-.595-.039-.833-.039q-.428,0-.867.034-.054.517-.054,1.432v1.018c.26.017.469.025.63.025l.644,0q.453,0,.512-.074a1.556,1.556,0,0,0,.1-.664l.049-.049h.3l.049.049q-.019.551-.02,1.009,0,.5.02,1.087l-.049.044h-.329l-.049-.049a1.565,1.565,0,0,0-.079-.672q-.079-.106-.477-.141c-.2-.016-.413-.025-.639-.025s-.462.009-.67.025v1.5q0,.645.025,1.25h.67a7.634,7.634,0,0,0,1.761-.113.16.16,0,0,0,.079-.054.887.887,0,0,0,.093-.3l.118-.61.049-.054h.3Z" transform="translate(-4.141 -102.601)" fill="#0f213f"/>
        <path id="Path_131" data-name="Path 131" d="M26.123,108.015a10.981,10.981,0,0,0-.109,1.624l-.049.049-3.577-.03q-.9,0-1.264.03l-.049-.049V109.5l.025-.059a1.725,1.725,0,0,0,.393-.29,2.564,2.564,0,0,0,.054-.655l.015-1.1V104.9a11.055,11.055,0,0,0-.064-1.525.214.214,0,0,0-.167-.182,5.3,5.3,0,0,0-.576-.049l-.049-.049v-.335l.049-.045q.507.03,1.486.03,1.014,0,1.54-.03l.049.045v.339l-.049.044a5.265,5.265,0,0,0-.575.049.213.213,0,0,0-.168.182,11.091,11.091,0,0,0-.063,1.525v2.943c0,.43.007.846.025,1.25h.669a7.63,7.63,0,0,0,1.761-.113.157.157,0,0,0,.079-.054.873.873,0,0,0,.093-.3l.119-.61.049-.054h.3Z" transform="translate(-7.941 -102.601)" fill="#0f213f"/>
        <path id="Path_132" data-name="Path 132" d="M36.459,103.1l-.049.049a1.667,1.667,0,0,0-.44.081.579.579,0,0,0-.2.224,8.813,8.813,0,0,0-.423.925l-.35.832-.659,1.6q-.852,2.067-1.147,2.908h-.748l-2.259-5.477a3.94,3.94,0,0,0-.5-.984,1.071,1.071,0,0,0-.6-.113l-.049-.054v-.325l.054-.054q.517.03,1.3.03.985,0,1.792-.03l.049.054v.33l-.045.049a1.67,1.67,0,0,0-.654.089.176.176,0,0,0-.084.166,5.044,5.044,0,0,0,.32.935l.232.586L33.24,108l1.093-2.741q.064-.157.295-.792a5.882,5.882,0,0,0,.335-1.068c0-.108-.036-.173-.109-.2a3.885,3.885,0,0,0-.659-.054l-.049-.049v-.335l.054-.049q.556.03,1.157.03.428,0,1.048-.03l.054.054Z" transform="translate(-11.132 -102.601)" fill="#0f213f"/>
        <path id="Path_133" data-name="Path 133" d="M47.274,108.015a10.979,10.979,0,0,0-.109,1.624l-.049.049-3.577-.03q-.9,0-1.264.03l-.049-.049V109.5l.025-.059a1.724,1.724,0,0,0,.393-.29,2.609,2.609,0,0,0,.054-.655l.015-1.1V104.9a11.054,11.054,0,0,0-.064-1.525.214.214,0,0,0-.167-.182,5.305,5.305,0,0,0-.576-.049l-.049-.049v-.335l.049-.045q.5.03,1.535.03.925,0,3.518-.03l.054.04-.064.546q-.03.261-.044.442l-.034.458-.049.054h-.285l-.049-.049a2,2,0,0,0-.079-.763,1.132,1.132,0,0,0-.529-.109c-.316-.026-.595-.039-.834-.039q-.428,0-.866.034-.054.517-.054,1.432v1.018q.388.025.629.025l.645,0q.452,0,.512-.074a1.561,1.561,0,0,0,.1-.664l.049-.049h.305l.049.049q-.019.551-.02,1.009,0,.5.02,1.087l-.049.044h-.33l-.049-.049a1.565,1.565,0,0,0-.079-.672c-.052-.071-.212-.118-.477-.141-.2-.016-.414-.025-.64-.025s-.462.009-.669.025v1.5c0,.43.007.846.025,1.25h.669a7.63,7.63,0,0,0,1.761-.113.157.157,0,0,0,.079-.054.873.873,0,0,0,.093-.3l.119-.61.049-.054h.3Z" transform="translate(-16.052 -102.601)" fill="#0f213f"/>
        <path id="Path_134" data-name="Path 134" d="M59.359,105.781a3.768,3.768,0,0,1-1.087,2.766,3.648,3.648,0,0,1-1.289.831,4.884,4.884,0,0,1-1.9.3l-1.737-.029q-.709-.01-1.171.029l-.049-.049v-.137l.025-.059a1.7,1.7,0,0,0,.393-.29,2.556,2.556,0,0,0,.054-.654l.015-1.1v-2.495a11.067,11.067,0,0,0-.064-1.526.215.215,0,0,0-.167-.182,5.492,5.492,0,0,0-.576-.049l-.049-.049v-.335l.049-.044q.522.03.994.03,1.147,0,2.067-.03.457-.015.92-.015a5.211,5.211,0,0,1,1.964.29,2.5,2.5,0,0,1,1.171,1,3.378,3.378,0,0,1,.433,1.8m-1.511.236a3.031,3.031,0,0,0-.659-2.1,1.858,1.858,0,0,0-.861-.541,4.982,4.982,0,0,0-1.373-.148,5.8,5.8,0,0,0-.875.064q-.05.551-.049,2.667l.009,2.15a8.6,8.6,0,0,0,.04.955,5.655,5.655,0,0,0,.885.069,3.474,3.474,0,0,0,1.545-.285,2.193,2.193,0,0,0,.969-1.053,4.058,4.058,0,0,0,.369-1.782" transform="translate(-19.851 -102.591)" fill="#0f213f"/>
        <path id="Path_135" data-name="Path 135" d="M70.764,108.015a10.987,10.987,0,0,0-.108,1.624l-.049.049-3.577-.03q-.9,0-1.264.03l-.049-.049V109.5l.025-.059a1.725,1.725,0,0,0,.393-.29,2.609,2.609,0,0,0,.054-.655l.015-1.1V104.9a11.017,11.017,0,0,0-.065-1.525.214.214,0,0,0-.167-.182,5.285,5.285,0,0,0-.576-.049l-.049-.049v-.335l.049-.045q.5.03,1.535.03.926,0,3.518-.03l.054.04-.063.546c-.02.174-.035.321-.045.442l-.034.458-.049.054h-.285l-.049-.049a2.017,2.017,0,0,0-.079-.763,1.133,1.133,0,0,0-.53-.109c-.316-.026-.595-.039-.834-.039q-.428,0-.867.034-.054.517-.054,1.432v1.018c.26.017.469.025.63.025l.644,0q.453,0,.512-.074a1.557,1.557,0,0,0,.1-.664l.049-.049h.3l.049.049q-.019.551-.02,1.009,0,.5.02,1.087l-.049.044h-.329l-.049-.049a1.565,1.565,0,0,0-.079-.672q-.079-.106-.477-.141c-.2-.016-.413-.025-.639-.025s-.462.009-.67.025v1.5q0,.645.025,1.25h.669a7.634,7.634,0,0,0,1.761-.113.16.16,0,0,0,.079-.054.887.887,0,0,0,.093-.3l.118-.61.049-.054h.3Z" transform="translate(-25.061 -102.601)" fill="#0f213f"/>
        <path id="Path_136" data-name="Path 136" d="M81.988,109.629l-.049.049-.187,0c-.449-.016-.729-.025-.842-.025-.168,0-.433.01-.8.03a1.38,1.38,0,0,0-.187-.394l-1.22-2.037-.547-.832a1.371,1.371,0,0,0-.29-.3l.054-.167c.075,0,.131,0,.168,0a1.576,1.576,0,0,0,.758-.153,1.3,1.3,0,0,0,.462-.482,1.538,1.538,0,0,0,.211-.822,1.118,1.118,0,0,0-.62-1.122,2.108,2.108,0,0,0-.861-.137,2.786,2.786,0,0,0-.472.039q-.05.483-.049,1.644v2.574a11.107,11.107,0,0,0,.063,1.526.215.215,0,0,0,.168.182,5.46,5.46,0,0,0,.576.049l.049.049v.329l-.045.049q-.491-.03-1.515-.03-1.058,0-1.515.03l-.049-.044V109.3l.049-.049a5.48,5.48,0,0,0,.576-.049.214.214,0,0,0,.167-.182,10.959,10.959,0,0,0,.064-1.526v-2.6a10.953,10.953,0,0,0-.064-1.525.215.215,0,0,0-.167-.182,5.3,5.3,0,0,0-.576-.049l-.049-.049v-.335l.049-.044q.483.03,1.515.029.6,0,.974-.014.743-.03,1.113-.03a3.76,3.76,0,0,1,1.25.152,1.168,1.168,0,0,1,.718.7,1.653,1.653,0,0,1,.089.571,1.968,1.968,0,0,1-1.505,1.9q.245.412.521.836l.758,1.166a5.345,5.345,0,0,0,.891,1.176.571.571,0,0,0,.315.073l.049.049Z" transform="translate(-28.86 -102.591)" fill="#0f213f"/>
        <path id="Path_137" data-name="Path 137" d="M92.339,108.015a10.986,10.986,0,0,0-.108,1.624l-.049.049-3.577-.03q-.9,0-1.264.03l-.049-.049V109.5l.025-.059a1.725,1.725,0,0,0,.393-.29,2.61,2.61,0,0,0,.054-.655l.015-1.1V104.9a11.02,11.02,0,0,0-.065-1.525.214.214,0,0,0-.167-.182,5.286,5.286,0,0,0-.576-.049l-.049-.049v-.335l.049-.045q.5.03,1.535.03.926,0,3.518-.03l.054.04-.063.546c-.02.174-.035.321-.045.442l-.034.458-.049.054H91.6l-.049-.049a2.016,2.016,0,0,0-.079-.763,1.133,1.133,0,0,0-.53-.109c-.316-.026-.595-.039-.833-.039q-.428,0-.867.034-.054.517-.054,1.432v1.018c.26.017.469.025.63.025l.644,0q.453,0,.512-.074a1.556,1.556,0,0,0,.1-.664l.049-.049h.3l.049.049q-.019.551-.02,1.009,0,.5.02,1.087l-.049.044H91.1l-.049-.049a1.564,1.564,0,0,0-.079-.672q-.079-.106-.477-.141c-.2-.016-.413-.025-.639-.025s-.462.009-.67.025v1.5q0,.645.025,1.25h.67a7.634,7.634,0,0,0,1.761-.113.16.16,0,0,0,.079-.054.887.887,0,0,0,.093-.3l.118-.61.049-.054h.3Z" transform="translate(-33.335 -102.601)" fill="#0f213f"/>
        <path id="Path_138" data-name="Path 138" d="M106.4,107.314a2.325,2.325,0,0,1-.463,1.431,2.412,2.412,0,0,1-1.058.813,3.78,3.78,0,0,1-1.431.246,4.677,4.677,0,0,1-2.028-.473l-.059-.108a7.161,7.161,0,0,0,.138-1.61l.049-.049h.315l.044.049v.113a5.893,5.893,0,0,0,.059.729,1.415,1.415,0,0,0,.635.541,2.21,2.21,0,0,0,.994.237,1.4,1.4,0,0,0,1.348-.679,1.483,1.483,0,0,0,.192-.724.935.935,0,0,0-.526-.9,2.965,2.965,0,0,0-.842-.221,4.4,4.4,0,0,1-1.727-.507,1.664,1.664,0,0,1-.625-1.432,2.039,2.039,0,0,1,.679-1.609,2.929,2.929,0,0,1,2-.63,4.032,4.032,0,0,1,1.86.369l.035.118a8.48,8.48,0,0,0-.142,1.407l-.054.05h-.31l-.049-.05a6.122,6.122,0,0,0-.049-.768,1.157,1.157,0,0,0-.532-.393,2.174,2.174,0,0,0-.841-.168,1.492,1.492,0,0,0-1.042.35,1.1,1.1,0,0,0-.359.851.92.92,0,0,0,.408.832,3.963,3.963,0,0,0,1.255.329c.068.01.261.043.576.1a2.82,2.82,0,0,1,.536.143,1.486,1.486,0,0,1,.748.571,1.88,1.88,0,0,1,.271,1.043" transform="translate(-38.872 -102.531)" fill="#0f213f"/>
        <path id="Path_139" data-name="Path 139" d="M117.639,108.727l-.226.5a4.737,4.737,0,0,1-2.323.571,3.578,3.578,0,0,1-3.513-1.85,4.01,4.01,0,0,1-.438-1.855,3.281,3.281,0,0,1,1.072-2.573,4.312,4.312,0,0,1,3-.989,6.574,6.574,0,0,1,2.357.438l.063.073a8.253,8.253,0,0,0-.206,1.589l-.044.049h-.291l-.049-.054a6.835,6.835,0,0,0-.054-.827,2.25,2.25,0,0,0-1.776-.694,2.389,2.389,0,0,0-1.875.757,2.968,2.968,0,0,0-.679,2.057,3.209,3.209,0,0,0,1.211,2.7,2.736,2.736,0,0,0,1.727.5,4.009,4.009,0,0,0,1.923-.507Z" transform="translate(-42.623 -102.531)" fill="#0f213f"/>
        <path id="Path_140" data-name="Path 140" d="M130.469,109.638l-.049.049q-.487-.03-1.516-.03-1.053,0-1.515.03l-.049-.044v-.334l.054-.049a5.421,5.421,0,0,0,.575-.049.214.214,0,0,0,.168-.182,11.062,11.062,0,0,0,.064-1.526v-1.186q-.251-.024-1.595-.025-1.239,0-1.633.025V107.5a11.1,11.1,0,0,0,.063,1.526.215.215,0,0,0,.168.182,5.463,5.463,0,0,0,.576.049l.049.049v.329l-.045.049q-.491-.03-1.515-.03-1.058,0-1.515.03l-.049-.044v-.334l.049-.049a5.482,5.482,0,0,0,.576-.049.214.214,0,0,0,.167-.182,10.963,10.963,0,0,0,.064-1.526v-2.6a10.959,10.959,0,0,0-.064-1.525.215.215,0,0,0-.167-.182,5.3,5.3,0,0,0-.576-.049l-.049-.049v-.335l.049-.044q.473.03,1.515.029,1.068,0,1.515-.029l.045.044v.34l-.049.044a5.28,5.28,0,0,0-.576.049.216.216,0,0,0-.168.182,11.1,11.1,0,0,0-.063,1.525v.813c.347.016.827.025,1.436.025q1.438,0,1.792-.025V104.9a11.057,11.057,0,0,0-.064-1.525.215.215,0,0,0-.168-.182,5.24,5.24,0,0,0-.575-.049l-.054-.049v-.335l.049-.044q.477.03,1.515.029,1.073,0,1.516-.029l.049.044v.34l-.044.044a5.147,5.147,0,0,0-.581.049.214.214,0,0,0-.167.182,11.03,11.03,0,0,0-.065,1.525v2.6a11.034,11.034,0,0,0,.065,1.526.213.213,0,0,0,.167.182,5.441,5.441,0,0,0,.576.049l.049.049Z" transform="translate(-47.058 -102.601)" fill="#0f213f"/>
        <path id="Path_141" data-name="Path 141" d="M144.03,105.951a3.8,3.8,0,0,1-1.058,2.849,3.848,3.848,0,0,1-2.809,1,3.6,3.6,0,0,1-2.643-.948,3.535,3.535,0,0,1-.959-2.635,3.341,3.341,0,0,1,1.806-3.277,4.471,4.471,0,0,1,2.023-.414,3.74,3.74,0,0,1,2.672.9,3.3,3.3,0,0,1,.969,2.52m-1.515.256a3.959,3.959,0,0,0-.573-2.266,1.906,1.906,0,0,0-1.68-.839,1.878,1.878,0,0,0-1.939,1.314,4.4,4.4,0,0,0-.246,1.51,4.443,4.443,0,0,0,.561,2.4,1.924,1.924,0,0,0,1.737.911,1.854,1.854,0,0,0,1.885-1.383,5,5,0,0,0,.256-1.648" transform="translate(-52.372 -102.531)" fill="#0f213f"/>
        <path id="Path_142" data-name="Path 142" d="M157.647,105.951a3.8,3.8,0,0,1-1.058,2.849,3.848,3.848,0,0,1-2.809,1,3.6,3.6,0,0,1-2.643-.948,3.535,3.535,0,0,1-.959-2.635,3.341,3.341,0,0,1,1.806-3.277,4.471,4.471,0,0,1,2.023-.414,3.74,3.74,0,0,1,2.672.9,3.3,3.3,0,0,1,.969,2.52m-1.515.256a3.959,3.959,0,0,0-.573-2.266,1.906,1.906,0,0,0-1.68-.839,1.878,1.878,0,0,0-1.939,1.314,4.4,4.4,0,0,0-.246,1.51,4.443,4.443,0,0,0,.561,2.4,1.924,1.924,0,0,0,1.737.911,1.854,1.854,0,0,0,1.885-1.383,5,5,0,0,0,.256-1.648" transform="translate(-57.595 -102.531)" fill="#0f213f"/>
        <path id="Path_143" data-name="Path 143" d="M168.974,108.015a10.978,10.978,0,0,0-.109,1.624l-.049.049-3.577-.03q-.9,0-1.264.03l-.049-.049V109.5l.025-.059a1.724,1.724,0,0,0,.393-.29,2.56,2.56,0,0,0,.054-.655l.015-1.1V104.9a11.055,11.055,0,0,0-.064-1.525.214.214,0,0,0-.167-.182,5.3,5.3,0,0,0-.576-.049l-.049-.049v-.335l.049-.045q.507.03,1.486.03,1.013,0,1.54-.03l.049.045v.339l-.049.044a5.266,5.266,0,0,0-.575.049.213.213,0,0,0-.168.182,11.091,11.091,0,0,0-.063,1.525v2.943c0,.43.007.846.025,1.25h.669a7.63,7.63,0,0,0,1.761-.113.158.158,0,0,0,.079-.054.872.872,0,0,0,.093-.3l.119-.61.049-.054h.3Z" transform="translate(-62.725 -102.601)" fill="#0f213f"/>
      </g>
      <g id="Group_259" data-name="Group 259" transform="translate(115 17.077)">
        <path id="Path_144" data-name="Path 144" d="M66.509,126.419l-.187.457a5.064,5.064,0,0,1-2.333.556,4.123,4.123,0,0,1-2.886-1.009,3.4,3.4,0,0,1-1.109-2.638,3.475,3.475,0,0,1,.553-1.96,3.434,3.434,0,0,1,1.462-1.255,4.835,4.835,0,0,1,2.039-.416,6.118,6.118,0,0,1,1.293.137,5.474,5.474,0,0,1,1.068.33l.034.049a6.3,6.3,0,0,0-.211,1.363l-.035.039h-.231l-.039-.039-.049-.837a2.664,2.664,0,0,0-.869-.445,3.511,3.511,0,0,0-1.06-.16,3.079,3.079,0,0,0-1.491.357,2.479,2.479,0,0,0-1.023,1.033,3.447,3.447,0,0,0-.364,1.656,3.392,3.392,0,0,0,.428,1.727,2.931,2.931,0,0,0,1.168,1.142,3.6,3.6,0,0,0,1.729.4,4.109,4.109,0,0,0,.842-.084,3.2,3.2,0,0,0,.671-.207,3.039,3.039,0,0,0,.514-.3Z" transform="translate(-59.994 -120.155)" fill="#0f213f"/>
        <path id="Path_145" data-name="Path 145" d="M71.34,127.336,71.3,127.3v-.256L71.34,127a2.1,2.1,0,0,0,.462-.038.392.392,0,0,0,.185-.128,4.007,4.007,0,0,0,.327-.628l.517-1.122,1.339-3.031q.378-.891.753-1.782h.319l2.1,4.941.28.659c.083.187.176.39.283.61a1.9,1.9,0,0,0,.221.389.418.418,0,0,0,.153.091,1.63,1.63,0,0,0,.406.038l.039.039v.256l-.039.039q-.522-.044-.94-.044-.817.025-1.634.044l-.039-.039v-.256l.039-.039a3.948,3.948,0,0,0,.689-.047.163.163,0,0,0,.137-.17.844.844,0,0,0-.068-.285l-.6-1.5H73.417l-.537,1.259a1.493,1.493,0,0,0-.142.5.192.192,0,0,0,.133.182,2.226,2.226,0,0,0,.669.065l.044.039v.256l-.039.039q-.635-.039-1.113-.039-.541,0-1.092.039m2.244-2.761h2.49l-1.235-2.967Z" transform="translate(-64.328 -120.2)" fill="#0f213f"/>
        <path id="Path_146" data-name="Path 146" d="M84.179,120.387l.615.02q.6.019.792.019.167,0,1.412-.039l.04.035v.246L87,120.7q-.339.009-.523.03a.633.633,0,0,0-.269.074.348.348,0,0,0-.11.253,4.373,4.373,0,0,0-.027.553l-.01,1.132v2.279l0,.959a6.95,6.95,0,0,0,.029.718.468.468,0,0,0,.072.217.369.369,0,0,0,.179.091,3.8,3.8,0,0,0,.654.057l.04.03v.246l-.04.039-.866-.03c-.233-.007-.416-.01-.546-.01q-.153,0-1.407.039l-.039-.039v-.246l.039-.03a5.126,5.126,0,0,0,.61-.049.45.45,0,0,0,.2-.076.388.388,0,0,0,.084-.2,4.645,4.645,0,0,0,.037-.679l0-1.038v-2.279l-.009-.959q-.006-.561-.027-.723a.459.459,0,0,0-.069-.217.358.358,0,0,0-.179-.088,4.226,4.226,0,0,0-.655-.054l-.039-.035v-.246Z" transform="translate(-69.254 -120.244)" fill="#0f213f"/>
        <path id="Path_147" data-name="Path 147" d="M89.575,120.418l.039-.035q.9.04,1.4.039.556,0,1.5-.035c.233-.007.4-.009.507-.009a2.369,2.369,0,0,1,1.688.452,1.48,1.48,0,0,1,.443,1.072,1.686,1.686,0,0,1-.216.813,1.93,1.93,0,0,1-.64.681,3.176,3.176,0,0,1-1.166.425q.137.192.5.665l.7.925q.339.458.729.967a3.094,3.094,0,0,0,.5.576.6.6,0,0,0,.194.081,1.507,1.507,0,0,0,.258.015l.04.039v.231l-.044.045a4.469,4.469,0,0,0-.561-.03c-.232,0-.488.009-.763.03q-.339-.414-1.068-1.432-.846-1.181-1.732-2.19l.049-.153c.171.01.3.015.4.015a2,2,0,0,0,1.333-.408,1.4,1.4,0,0,0,.482-1.132,1.159,1.159,0,0,0-.433-.981,1.878,1.878,0,0,0-1.171-.332,3.266,3.266,0,0,0-.974.142,9.918,9.918,0,0,0-.074,1.846v2.278l0,.96a6.9,6.9,0,0,0,.03.718.459.459,0,0,0,.072.216.37.37,0,0,0,.179.091,3.836,3.836,0,0,0,.655.056l.039.03v.247l-.039.039c-.017,0-.3-.009-.866-.03q-.35-.009-.546-.009-.153,0-1.408.039l-.039-.039v-.247l.039-.03a4.978,4.978,0,0,0,.61-.049.453.453,0,0,0,.2-.076.4.4,0,0,0,.084-.2,4.676,4.676,0,0,0,.036-.679l0-1.038v-2.278l-.01-.96q-.006-.561-.027-.723a.44.44,0,0,0-.069-.216.353.353,0,0,0-.179-.089,4.3,4.3,0,0,0-.655-.054l-.039-.035Z" transform="translate(-71.339 -120.242)" fill="#0f213f"/>
        <path id="Path_148" data-name="Path 148" d="M100.542,123.863a4.338,4.338,0,0,1,.212-1.377,3.187,3.187,0,0,1,.721-1.184,3.483,3.483,0,0,1,1.227-.842,4.219,4.219,0,0,1,1.624-.3,3.8,3.8,0,0,1,2.672.913,3.218,3.218,0,0,1,.994,2.492,4.078,4.078,0,0,1-.487,2,3.411,3.411,0,0,1-1.4,1.378,4.2,4.2,0,0,1-2.04.492,3.958,3.958,0,0,1-1.476-.268,3.012,3.012,0,0,1-1.149-.8,3.244,3.244,0,0,1-.689-1.23,4.376,4.376,0,0,1-.215-1.275m1.023-.324a4.8,4.8,0,0,0,.194,1.292,3.4,3.4,0,0,0,.581,1.186,2.5,2.5,0,0,0,.891.735,2.829,2.829,0,0,0,2.507-.108,2.19,2.19,0,0,0,.905-1.085,4.2,4.2,0,0,0,.31-1.65,4.4,4.4,0,0,0-.354-1.8,2.374,2.374,0,0,0-1.009-1.166,2.926,2.926,0,0,0-1.451-.364,2.436,2.436,0,0,0-1.885.748,3.16,3.16,0,0,0-.689,2.209" transform="translate(-75.545 -120.157)" fill="#0f213f"/>
      </g>
    </g>
  </g>
</svg>
