<svg id="Group_258" data-name="Group 258" xmlns="http://www.w3.org/2000/svg" width="16.8" height="24" viewBox="0 0 16.8 24">
  <g id="Page-1" transform="translate(0 24) rotate(-90)">
    <g id="Dribbble-Light-Preview">
      <g id="icons">
        <path id="youtube-_168_" data-name="youtube-[#168]" d="M9.586,11.5V4.769c2.391,1.125,4.242,2.212,6.432,3.383-1.806,1-4.041,2.125-6.432,3.351M22.909,1.42A3.118,3.118,0,0,0,21.046.313C18.846-.1,5.125-.1,2.927.313a3.19,3.19,0,0,0-1.593.807C-.6,2.916.006,12.542.472,14.1a3.4,3.4,0,0,0,.769,1.481,3.083,3.083,0,0,0,1.621.843c1.811.375,11.14.584,18.146.057a3.144,3.144,0,0,0,1.667-.853c1.788-1.788,1.666-11.956.234-14.21" fill="#0f213f" fill-rule="evenodd"/>
      </g>
    </g>
  </g>
</svg>
